<svg width="18" height="18" viewBox="0 0 18 18" fill="none" xmlns="http://www.w3.org/2000/svg">
<g clip-path="url(#clip0_102_4333)">
<path d="M17.1 8.1H16.8357L16.8756 8.049C17.0222 7.86039 17.0878 7.62129 17.0581 7.38429C17.0283 7.14729 16.9057 6.93181 16.7171 6.78525C16.5284 6.63869 16.2893 6.57306 16.0523 6.60279C15.8153 6.63253 15.5999 6.75519 15.4533 6.9438L14.5533 8.1H11.1726L13.5633 5.7096L15.0177 5.8896C15.2545 5.91894 15.4934 5.85301 15.6816 5.7063C15.7754 5.63396 15.8538 5.54363 15.9123 5.44061C15.9708 5.33758 16.0081 5.22393 16.0221 5.1063C16.0498 4.86987 15.9833 4.63205 15.8369 4.44433C15.6905 4.25662 15.4761 4.13413 15.24 4.1034L15.1779 4.0956L15.3645 3.909C15.5329 3.73998 15.6274 3.51113 15.6274 3.27255C15.6274 3.03397 15.5329 2.80512 15.3645 2.6361C15.1929 2.47273 14.965 2.38161 14.7281 2.38161C14.4911 2.38161 14.2632 2.47273 14.0916 2.6361L13.9047 2.8227L13.8963 2.76C13.8657 2.52388 13.743 2.30943 13.555 2.16334C13.367 2.01725 13.1289 1.95136 12.8925 1.98C12.6554 2.00953 12.4397 2.13196 12.2929 2.3204C12.146 2.50884 12.0799 2.74788 12.1092 2.985L12.2892 4.4388L9.9 6.8274V3.4467L11.0568 2.5467C11.2452 2.39986 11.3676 2.18419 11.397 1.94714C11.4264 1.71008 11.3604 1.47106 11.2135 1.28265C11.0667 1.09424 10.851 0.971878 10.614 0.942482C10.3769 0.913085 10.1379 0.979063 9.9495 1.1259L9.9 1.1643V0.9C9.9 0.661305 9.80518 0.432387 9.6364 0.263604C9.46761 0.0948212 9.2387 0 9 0C8.76131 0 8.53239 0.0948212 8.3636 0.263604C8.19482 0.432387 8.1 0.661305 8.1 0.9V1.1643L8.049 1.1244C7.95561 1.05183 7.84884 0.998368 7.73479 0.967062C7.62074 0.935756 7.50164 0.927221 7.38429 0.941944C7.26694 0.956667 7.15364 0.994359 7.05085 1.05287C6.94807 1.11138 6.85782 1.18956 6.78525 1.28295C6.71268 1.37634 6.65922 1.48311 6.62791 1.59716C6.59661 1.71121 6.58807 1.83031 6.60279 1.94766C6.61752 2.06501 6.65521 2.17831 6.71372 2.2811C6.77223 2.38388 6.85041 2.47413 6.9438 2.5467L8.1 3.4467V6.8274L5.7096 4.4367L5.8896 2.9823C5.91787 2.74603 5.85142 2.50817 5.70479 2.32076C5.55815 2.13336 5.34326 2.01165 5.10713 1.98226C4.87099 1.95287 4.63282 2.01819 4.44473 2.16394C4.25663 2.30969 4.1339 2.524 4.1034 2.76L4.0956 2.8221L3.909 2.6355C3.73731 2.47227 3.50946 2.38124 3.27255 2.38124C3.03564 2.38124 2.8078 2.47227 2.6361 2.6355C2.55251 2.71907 2.4862 2.8183 2.44097 2.9275C2.39573 3.0367 2.37244 3.15375 2.37244 3.27195C2.37244 3.39015 2.39573 3.5072 2.44097 3.6164C2.4862 3.7256 2.55251 3.82483 2.6361 3.9084L2.8227 4.0953L2.7585 4.1034C2.52259 4.13448 2.30842 4.25727 2.16242 4.44517C2.01642 4.63306 1.95034 4.87092 1.9785 5.1072C1.99293 5.22467 2.03039 5.33815 2.08874 5.44112C2.14708 5.5441 2.22517 5.63456 2.31852 5.70732C2.41187 5.78008 2.51866 5.83371 2.63276 5.86514C2.74687 5.89657 2.86606 5.90519 2.9835 5.8905L4.4373 5.7105L6.8274 8.1H3.4467L2.5467 6.9432C2.47399 6.84991 2.38362 6.77185 2.28075 6.71349C2.17788 6.65512 2.06452 6.61759 1.94714 6.60303C1.71008 6.57364 1.47106 6.63961 1.28265 6.78645C1.09424 6.93329 0.971878 7.14896 0.942482 7.38601C0.913085 7.62307 0.979063 7.86209 1.1259 8.0505L1.1643 8.1H0.9C0.661305 8.1 0.432387 8.19482 0.263604 8.3636C0.0948212 8.53239 0 8.76131 0 9C0 9.2387 0.0948212 9.46761 0.263604 9.6364C0.432387 9.80518 0.661305 9.9 0.9 9.9H1.1643L1.1244 9.951C0.977841 10.1396 0.91221 10.3787 0.941944 10.6157C0.971678 10.8527 1.09434 11.0682 1.28295 11.2148C1.47156 11.3613 1.71066 11.4269 1.94766 11.3972C2.18466 11.3675 2.40014 11.2448 2.5467 11.0562L3.4467 9.9H6.8274L4.4367 12.2904L2.9823 12.1104C2.86493 12.0958 2.74583 12.1045 2.6318 12.1359C2.51779 12.1674 2.41108 12.221 2.3178 12.2937C2.22452 12.3664 2.14648 12.4568 2.08816 12.5597C2.02984 12.6626 1.99237 12.776 1.9779 12.8934C1.9501 13.1299 2.01661 13.3678 2.163 13.5556C2.3094 13.7433 2.52389 13.8659 2.76 13.8966L2.8221 13.9044L2.6355 14.091C2.46712 14.26 2.37259 14.4889 2.37259 14.7275C2.37259 14.966 2.46712 15.1949 2.6355 15.3639C2.80713 15.5273 3.035 15.6184 3.27195 15.6184C3.5089 15.6184 3.73677 15.5273 3.9084 15.3639L4.0953 15.1773L4.1034 15.2415C4.13336 15.4779 4.25586 15.6928 4.44404 15.839C4.63222 15.9853 4.87071 16.0509 5.1072 16.0215C5.22467 16.0071 5.33815 15.9696 5.44112 15.9113C5.5441 15.8529 5.63456 15.7748 5.70732 15.6815C5.78008 15.5881 5.83371 15.4813 5.86514 15.3672C5.89657 15.2531 5.90519 15.1339 5.8905 15.0165L5.7105 13.5627L8.1 11.1726V14.5533L6.9432 15.4533C6.75479 15.6001 6.63243 15.8158 6.60303 16.0529C6.57364 16.2899 6.63961 16.5289 6.78645 16.7174C6.93329 16.9058 7.14896 17.0281 7.38601 17.0575C7.62307 17.0869 7.86209 17.0209 8.0505 16.8741L8.1 16.8357V17.1C8.1 17.3387 8.19482 17.5676 8.3636 17.7364C8.53239 17.9052 8.76131 18 9 18C9.2387 18 9.46761 17.9052 9.6364 17.7364C9.80518 17.5676 9.9 17.3387 9.9 17.1V16.8357L9.951 16.8756C10.1396 17.0222 10.3787 17.0878 10.6157 17.0581C10.8527 17.0283 11.0682 16.9057 11.2148 16.7171C11.3613 16.5284 11.4269 16.2893 11.3972 16.0523C11.3675 15.8153 11.2448 15.5999 11.0562 15.4533L9.9 14.5533V11.1726L12.2904 13.5633L12.1104 15.0177C12.081 15.2547 12.147 15.4937 12.2938 15.6821C12.4406 15.8705 12.6562 15.9929 12.8933 16.0223C13.1303 16.0517 13.3693 15.9857 13.5577 15.8389C13.746 15.6921 13.8684 15.4764 13.8978 15.2394L13.9056 15.1773L14.0922 15.3639C14.2639 15.5271 14.4917 15.6182 14.7287 15.6182C14.9656 15.6182 15.1934 15.5271 15.3651 15.3639C15.4487 15.2803 15.515 15.1811 15.5602 15.0719C15.6055 14.9627 15.6288 14.8457 15.6288 14.7275C15.6288 14.6092 15.6055 14.4922 15.5602 14.383C15.515 14.2738 15.4487 14.1746 15.3651 14.091L15.1785 13.9041L15.2427 13.896C15.4786 13.8649 15.6928 13.7421 15.8388 13.5542C15.9848 13.3663 16.0509 13.1285 16.0227 12.8922C16.0083 12.7747 15.9708 12.6613 15.9125 12.5583C15.8541 12.4553 15.776 12.3648 15.6827 12.2921C15.5893 12.2193 15.4825 12.1657 15.3684 12.1343C15.2543 12.1028 15.1351 12.0942 15.0177 12.1089L13.5639 12.2889L11.1726 9.9H14.5533L15.4533 11.0568C15.6001 11.2452 15.8158 11.3676 16.0529 11.397C16.2899 11.4264 16.5289 11.3604 16.7174 11.2135C16.9058 11.0667 17.0281 10.851 17.0575 10.614C17.0869 10.3769 17.0209 10.1379 16.8741 9.9495L16.8357 9.9H17.1C17.3387 9.9 17.5676 9.80518 17.7364 9.6364C17.9052 9.46761 18 9.2387 18 9C18 8.76131 17.9052 8.53239 17.7364 8.3636C17.5676 8.19482 17.3387 8.1 17.1 8.1ZM17.1 9.3H16.221C16.1648 9.30003 16.1098 9.31583 16.0621 9.34562C16.0145 9.3754 15.9762 9.41796 15.9515 9.46845C15.9269 9.51894 15.9169 9.57533 15.9228 9.63121C15.9286 9.68709 15.95 9.7402 15.9846 9.7845L16.4004 10.3173C16.4247 10.3484 16.4427 10.384 16.4533 10.422C16.4638 10.4601 16.4668 10.4998 16.462 10.539C16.4572 10.5782 16.4448 10.6161 16.4253 10.6505C16.4059 10.6849 16.3799 10.7151 16.3488 10.7394C16.3177 10.7637 16.2821 10.7817 16.2441 10.7923C16.206 10.8028 16.1663 10.8058 16.1271 10.801C16.0879 10.7962 16.05 10.7838 16.0156 10.7643C15.9812 10.7449 15.951 10.7189 15.9267 10.6878L14.9367 9.4158C14.9087 9.37976 14.8728 9.35059 14.8317 9.33052C14.7907 9.31045 14.7457 9.30001 14.7 9.3H10.4484C10.3891 9.30001 10.3311 9.31761 10.2818 9.35058C10.2324 9.38354 10.194 9.43039 10.1713 9.4852C10.1486 9.54001 10.1427 9.60032 10.1542 9.65851C10.1658 9.7167 10.1944 9.77015 10.2363 9.8121L13.2429 12.8184C13.2753 12.8505 13.3146 12.8749 13.3578 12.8897C13.4009 12.9045 13.4469 12.9094 13.4922 12.9039L15.0909 12.7047C15.1704 12.6951 15.2504 12.7173 15.3135 12.7665C15.3447 12.7904 15.3708 12.8204 15.3902 12.8545C15.4097 12.8887 15.4222 12.9264 15.4269 12.9654C15.4361 13.0444 15.414 13.1238 15.3652 13.1867C15.3165 13.2495 15.245 13.2907 15.1662 13.3014L14.4936 13.3839C14.4378 13.3908 14.3851 13.4132 14.3414 13.4486C14.2978 13.484 14.2649 13.531 14.2467 13.5842C14.2284 13.6373 14.2255 13.6946 14.2381 13.7493C14.2508 13.8041 14.2786 13.8542 14.3184 13.8939L14.94 14.5158C14.9962 14.572 15.0277 14.6483 15.0277 14.7277C15.0277 14.8072 14.9962 14.8835 14.94 14.9397C14.8827 14.9939 14.8069 15.0241 14.7281 15.0241C14.6492 15.0241 14.5734 14.9939 14.5161 14.9397L13.8942 14.3184C13.8545 14.2786 13.8043 14.2508 13.7496 14.2381C13.6948 14.2255 13.6375 14.2285 13.5844 14.2468C13.5312 14.2651 13.4842 14.2979 13.4488 14.3416C13.4134 14.3853 13.391 14.4381 13.3842 14.4939L13.302 15.1641C13.2916 15.2433 13.2505 15.3152 13.1875 15.3644C13.1245 15.4136 13.0448 15.436 12.9654 15.4269C12.9264 15.4221 12.8888 15.4097 12.8547 15.3902C12.8206 15.3707 12.7907 15.3446 12.7668 15.3135C12.7424 15.2824 12.7243 15.2468 12.7137 15.2087C12.7031 15.1706 12.7002 15.1308 12.705 15.0915L12.9042 13.4922C12.9099 13.4469 12.9051 13.4009 12.8903 13.3577C12.8755 13.3145 12.851 13.2752 12.8187 13.2429L9.8121 10.2363C9.77015 10.1944 9.7167 10.1658 9.65851 10.1542C9.60032 10.1427 9.54001 10.1486 9.4852 10.1713C9.43039 10.194 9.38354 10.2324 9.35058 10.2818C9.31761 10.3311 9.30001 10.3891 9.3 10.4484V14.7C9.30001 14.7457 9.31045 14.7907 9.33052 14.8317C9.35059 14.8728 9.37976 14.9087 9.4158 14.9367L10.6872 15.9267C10.7184 15.9508 10.7445 15.9808 10.7641 16.015C10.7837 16.0492 10.7963 16.087 10.8013 16.1261C10.8063 16.1652 10.8036 16.2049 10.7932 16.2429C10.7829 16.2809 10.7652 16.3166 10.7411 16.3478C10.7169 16.3789 10.6869 16.4051 10.6527 16.4246C10.6185 16.4442 10.5808 16.4569 10.5417 16.4619C10.5026 16.4669 10.4629 16.4641 10.4248 16.4538C10.3868 16.4434 10.3512 16.4257 10.32 16.4016L9.7857 15.9846C9.74141 15.9497 9.68818 15.928 9.63211 15.9219C9.57605 15.9159 9.51941 15.9258 9.46871 15.9505C9.418 15.9752 9.37528 16.0136 9.34544 16.0615C9.3156 16.1093 9.29985 16.1646 9.3 16.221V17.1C9.3 17.1796 9.26839 17.2559 9.21213 17.3121C9.15587 17.3684 9.07957 17.4 9 17.4C8.92043 17.4 8.84413 17.3684 8.78787 17.3121C8.73161 17.2559 8.7 17.1796 8.7 17.1V16.221C8.69997 16.1648 8.68417 16.1098 8.65439 16.0621C8.62461 16.0145 8.58205 15.9762 8.53155 15.9515C8.48106 15.9269 8.42467 15.9169 8.36879 15.9228C8.31291 15.9286 8.2598 15.95 8.2155 15.9846L7.6827 16.4004C7.61988 16.4495 7.54012 16.4717 7.46096 16.462C7.3818 16.4523 7.30973 16.4116 7.2606 16.3488C7.21147 16.286 7.1893 16.2062 7.19898 16.1271C7.20866 16.0479 7.24938 15.9758 7.3122 15.9267L8.5842 14.9367C8.62024 14.9087 8.64941 14.8728 8.66948 14.8317C8.68955 14.7907 8.69999 14.7457 8.7 14.7V10.4484C8.69999 10.3891 8.68239 10.3311 8.64942 10.2818C8.61646 10.2324 8.56961 10.194 8.5148 10.1713C8.45999 10.1486 8.39968 10.1427 8.34149 10.1542C8.28331 10.1658 8.22986 10.1944 8.1879 10.2363L5.1816 13.2429C5.14931 13.2752 5.12483 13.3145 5.11001 13.3577C5.09519 13.4009 5.09043 13.4469 5.0961 13.4922L5.2953 15.0909C5.30022 15.1302 5.29729 15.1702 5.28669 15.2084C5.27608 15.2466 5.258 15.2823 5.2335 15.3135C5.20956 15.3447 5.17963 15.3708 5.14548 15.3902C5.11133 15.4097 5.07363 15.4222 5.0346 15.4269C4.95561 15.4361 4.87616 15.414 4.81333 15.3652C4.7505 15.3165 4.7093 15.245 4.6986 15.1662L4.6161 14.4939C4.60925 14.4381 4.58686 14.3853 4.55147 14.3416C4.51608 14.2979 4.46912 14.2651 4.41595 14.2468C4.36278 14.2285 4.30554 14.2255 4.25075 14.2381C4.19597 14.2508 4.14584 14.2786 4.1061 14.3184L3.4842 14.94C3.427 14.9943 3.35113 15.0246 3.27225 15.0246C3.19337 15.0246 3.1175 14.9943 3.0603 14.94C3.00415 14.8838 2.97261 14.8075 2.97261 14.7281C2.97261 14.6486 3.00415 14.5723 3.0603 14.5161L3.6816 13.8945C3.72137 13.8548 3.74919 13.8047 3.76187 13.7499C3.77455 13.6952 3.77159 13.6379 3.75333 13.5848C3.73506 13.5316 3.70223 13.4846 3.65857 13.4492C3.61492 13.4138 3.56219 13.3914 3.5064 13.3845L2.8359 13.3023C2.75667 13.292 2.68468 13.2508 2.63551 13.1879C2.58633 13.1249 2.56392 13.0451 2.5731 12.9657C2.57786 12.9267 2.59034 12.8891 2.60981 12.855C2.62928 12.8209 2.65535 12.791 2.6865 12.7671C2.7176 12.7427 2.75323 12.7246 2.79133 12.714C2.82943 12.7034 2.86925 12.7005 2.9085 12.7053L4.5078 12.9045C4.55312 12.9102 4.59914 12.9054 4.64234 12.8906C4.68555 12.8758 4.7248 12.8513 4.7571 12.819L7.7637 9.8121C7.80564 9.77015 7.83421 9.7167 7.84578 9.65851C7.85735 9.60032 7.8514 9.54001 7.8287 9.4852C7.806 9.43039 7.76756 9.38354 7.71824 9.35058C7.66891 9.31761 7.61093 9.30001 7.5516 9.3H3.3C3.25433 9.30001 3.20928 9.31045 3.16826 9.33052C3.12724 9.35059 3.09134 9.37976 3.0633 9.4158L2.0733 10.6872C2.04919 10.7184 2.01917 10.7445 1.98496 10.7641C1.95076 10.7837 1.91303 10.7963 1.87393 10.8013C1.83483 10.8063 1.79513 10.8036 1.75709 10.7932C1.71906 10.7829 1.68343 10.7652 1.65225 10.7411C1.62107 10.7169 1.59494 10.6869 1.57536 10.6527C1.55578 10.6185 1.54312 10.5808 1.53812 10.5417C1.53312 10.5026 1.53587 10.4629 1.54621 10.4248C1.55656 10.3868 1.57429 10.3512 1.5984 10.32L2.0154 9.7857C2.05031 9.74141 2.07202 9.68818 2.07806 9.63211C2.0841 9.57605 2.07421 9.51941 2.04953 9.46871C2.02485 9.418 1.98638 9.37528 1.93853 9.34544C1.89068 9.3156 1.83539 9.29985 1.779 9.3H0.9C0.820435 9.3 0.744129 9.26839 0.687868 9.21213C0.631607 9.15587 0.6 9.07957 0.6 9C0.6 8.92043 0.631607 8.84413 0.687868 8.78787C0.744129 8.73161 0.820435 8.7 0.9 8.7H1.779C1.83518 8.69997 1.89023 8.68417 1.93786 8.65439C1.9855 8.62461 2.02382 8.58205 2.04846 8.53155C2.0731 8.48106 2.08306 8.42467 2.07721 8.36879C2.07137 8.31291 2.04995 8.2598 2.0154 8.2155L1.5996 7.6827C1.57527 7.6516 1.55731 7.61601 1.54674 7.57796C1.53616 7.53991 1.53319 7.50016 1.53798 7.46096C1.54277 7.42177 1.55524 7.3839 1.57466 7.34952C1.59409 7.31514 1.6201 7.28493 1.6512 7.2606C1.6823 7.23627 1.71789 7.21831 1.75594 7.20774C1.79399 7.19716 1.83374 7.19419 1.87294 7.19898C1.91213 7.20377 1.95 7.21624 1.98438 7.23566C2.01876 7.25509 2.04897 7.2811 2.0733 7.3122L3.0633 8.5842C3.09134 8.62024 3.12724 8.64941 3.16826 8.66948C3.20928 8.68955 3.25433 8.69999 3.3 8.7H7.5516C7.61093 8.69999 7.66891 8.68239 7.71824 8.64942C7.76756 8.61646 7.806 8.56961 7.8287 8.5148C7.8514 8.45999 7.85735 8.39968 7.84578 8.34149C7.83421 8.28331 7.80564 8.22986 7.7637 8.1879L4.7571 5.1816C4.7248 5.14931 4.68555 5.12483 4.64234 5.11001C4.59914 5.09519 4.55312 5.09043 4.5078 5.0961L2.91 5.2953C2.83056 5.30484 2.75056 5.28263 2.6874 5.2335C2.65622 5.20956 2.63013 5.17963 2.61065 5.14548C2.59118 5.11133 2.57872 5.07363 2.574 5.0346C2.56479 4.95561 2.58694 4.87616 2.63569 4.81333C2.68444 4.7505 2.7559 4.7093 2.8347 4.6986L3.5073 4.6161C3.56309 4.60921 3.61582 4.58678 3.65947 4.55137C3.70313 4.51596 3.73596 4.469 3.75423 4.41583C3.77249 4.36267 3.77545 4.30545 3.76277 4.25068C3.75009 4.19592 3.72227 4.14582 3.6825 4.1061L3.06 3.4842C3.00385 3.42795 2.97231 3.35173 2.97231 3.27225C2.97231 3.19277 3.00385 3.11655 3.06 3.0603C3.11727 3.00612 3.19311 2.97593 3.27195 2.97593C3.35079 2.97593 3.42663 3.00612 3.4839 3.0603L4.1058 3.6816C4.14552 3.72137 4.19562 3.74919 4.25038 3.76187C4.30515 3.77455 4.36237 3.77159 4.41553 3.75333C4.4687 3.73506 4.51566 3.70223 4.55107 3.65857C4.58647 3.61492 4.6089 3.56219 4.6158 3.5064L4.698 2.8359C4.70797 2.7565 4.74898 2.68428 4.81206 2.63503C4.87514 2.58578 4.95515 2.56351 5.0346 2.5731C5.0739 2.57795 5.11186 2.59053 5.14628 2.61012C5.18069 2.62971 5.21089 2.65593 5.23513 2.68725C5.25936 2.71857 5.27716 2.75437 5.28749 2.79261C5.29781 2.83084 5.30047 2.87074 5.2953 2.91L5.0961 4.5093C5.09043 4.55462 5.09519 4.60064 5.11001 4.64384C5.12483 4.68705 5.14931 4.7263 5.1816 4.7586L8.1879 7.7637C8.22986 7.80564 8.28331 7.83421 8.34149 7.84578C8.39968 7.85735 8.45999 7.8514 8.5148 7.8287C8.56961 7.806 8.61646 7.76756 8.64942 7.71824C8.68239 7.66891 8.69999 7.61093 8.7 7.5516V3.3C8.69999 3.25433 8.68955 3.20928 8.66948 3.16826C8.64941 3.12724 8.62024 3.09134 8.5842 3.0633L7.3128 2.0733C7.24982 2.02461 7.20877 1.95289 7.19867 1.87393C7.18857 1.79497 7.21026 1.71523 7.25895 1.65225C7.30764 1.58927 7.37936 1.54822 7.45832 1.53812C7.53728 1.52802 7.61702 1.54971 7.68 1.5984L8.2143 2.0154C8.25859 2.05031 8.31182 2.07202 8.36789 2.07806C8.42395 2.0841 8.48059 2.07421 8.53129 2.04953C8.582 2.02485 8.62472 1.98638 8.65456 1.93853C8.6844 1.89068 8.70015 1.83539 8.7 1.779V0.9C8.7 0.820435 8.73161 0.744129 8.78787 0.687868C8.84413 0.631607 8.92043 0.6 9 0.6C9.07957 0.6 9.15587 0.631607 9.21213 0.687868C9.26839 0.744129 9.3 0.820435 9.3 0.9V1.779C9.30003 1.83518 9.31583 1.89023 9.34562 1.93786C9.3754 1.9855 9.41796 2.02382 9.46845 2.04846C9.51894 2.0731 9.57533 2.08306 9.63121 2.07721C9.68709 2.07137 9.7402 2.04995 9.7845 2.0154L10.3173 1.5996C10.3484 1.57527 10.384 1.55731 10.422 1.54674C10.4601 1.53616 10.4998 1.53319 10.539 1.53798C10.5782 1.54277 10.6161 1.55524 10.6505 1.57466C10.6849 1.59409 10.7151 1.6201 10.7394 1.6512C10.7637 1.6823 10.7817 1.71789 10.7923 1.75594C10.8028 1.79399 10.8058 1.83374 10.801 1.87294C10.7962 1.91213 10.7838 1.95 10.7643 1.98438C10.7449 2.01876 10.7189 2.04897 10.6878 2.0733L9.4158 3.0633C9.37976 3.09134 9.35059 3.12724 9.33052 3.16826C9.31045 3.20928 9.30001 3.25433 9.3 3.3V7.5516C9.30001 7.61093 9.31761 7.66891 9.35058 7.71824C9.38354 7.76756 9.43039 7.806 9.4852 7.8287C9.54001 7.8514 9.60032 7.85735 9.65851 7.84578C9.7167 7.83421 9.77015 7.80564 9.8121 7.7637L12.8184 4.7571C12.8507 4.7248 12.8752 4.68555 12.89 4.64234C12.9048 4.59914 12.9096 4.55312 12.9039 4.5078L12.7047 2.91C12.6997 2.87067 12.7026 2.83075 12.7132 2.79255C12.7237 2.75434 12.7418 2.7186 12.7662 2.6874C12.7902 2.65624 12.8202 2.63018 12.8544 2.61071C12.8886 2.59124 12.9263 2.57876 12.9654 2.574C13.0444 2.56487 13.1238 2.58705 13.1866 2.63579C13.2494 2.68452 13.2906 2.75593 13.3014 2.8347L13.3839 3.5073C13.3908 3.56309 13.4132 3.61582 13.4486 3.65947C13.484 3.70313 13.531 3.73596 13.5842 3.75423C13.6373 3.77249 13.6946 3.77545 13.7493 3.76277C13.8041 3.75009 13.8542 3.72227 13.8939 3.6825L14.5158 3.06C14.573 3.00568 14.6489 2.9754 14.7277 2.9754C14.8066 2.9754 14.8825 3.00568 14.9397 3.06C14.9959 3.11625 15.0274 3.19247 15.0274 3.27195C15.0274 3.35143 14.9959 3.42765 14.9397 3.4839L14.3184 4.1058C14.2786 4.14552 14.2508 4.19562 14.2381 4.25038C14.2255 4.30515 14.2284 4.36237 14.2467 4.41553C14.2649 4.4687 14.2978 4.51566 14.3414 4.55107C14.3851 4.58647 14.4378 4.6089 14.4936 4.6158L15.1641 4.698C15.2433 4.70835 15.3153 4.74945 15.3645 4.81244C15.4137 4.87542 15.4361 4.95522 15.4269 5.0346C15.4221 5.07358 15.4097 5.11122 15.3902 5.14532C15.3707 5.17941 15.3446 5.20929 15.3135 5.2332C15.2824 5.25763 15.2468 5.27566 15.2087 5.28627C15.1706 5.29687 15.1308 5.29984 15.0915 5.295L13.4922 5.0958C13.4469 5.09029 13.4009 5.09512 13.3577 5.10993C13.3146 5.12474 13.2753 5.14914 13.2429 5.1813L10.2363 8.1879C10.1944 8.22986 10.1658 8.28331 10.1542 8.34149C10.1427 8.39968 10.1486 8.45999 10.1713 8.5148C10.194 8.56961 10.2324 8.61646 10.2818 8.64942C10.3311 8.68239 10.3891 8.69999 10.4484 8.7H14.7C14.7457 8.69999 14.7907 8.68955 14.8317 8.66948C14.8728 8.64941 14.9087 8.62024 14.9367 8.5842L15.9267 7.3128C15.9754 7.24982 16.0471 7.20877 16.1261 7.19867C16.205 7.18857 16.2848 7.21026 16.3478 7.25895C16.4107 7.30764 16.4518 7.37936 16.4619 7.45832C16.472 7.53728 16.4503 7.61702 16.4016 7.68L15.9846 8.2143C15.9497 8.25859 15.928 8.31182 15.9219 8.36789C15.9159 8.42395 15.9258 8.48059 15.9505 8.53129C15.9752 8.582 16.0136 8.62472 16.0615 8.65456C16.1093 8.6844 16.1646 8.70015 16.221 8.7H17.1C17.1796 8.7 17.2559 8.73161 17.3121 8.78787C17.3684 8.84413 17.4 8.92043 17.4 9C17.4 9.07957 17.3684 9.15587 17.3121 9.21213C17.2559 9.26839 17.1796 9.3 17.1 9.3Z" fill="#222222"/>
</g>
<defs>
<clipPath id="clip0_102_4333">
<rect width="18" height="18" fill="white"/>
</clipPath>
</defs>
</svg>
