<svg width="18" height="18" viewBox="0 0 18 18" fill="none" xmlns="http://www.w3.org/2000/svg">
<g clip-path="url(#clip0_102_4328)">
<mask id="path-1-outside-1_102_4328" maskUnits="userSpaceOnUse" x="-0.472656" y="-0.472656" width="19" height="19" fill="black">
<rect fill="white" x="-0.472656" y="-0.472656" width="19" height="19"/>
<path d="M4.62762 5.62781C4.62762 5.74418 4.53305 5.83875 4.41668 5.83875C4.30031 5.83875 4.20574 5.74418 4.20574 5.62781V5.26289C4.20574 5.14652 4.30031 5.05195 4.41668 5.05195C4.53305 5.05195 4.62762 5.14652 4.62762 5.26289V5.62781ZM4.41668 7.26715C4.30031 7.26715 4.20574 7.36172 4.20574 7.47809V7.8068C4.20574 7.92316 4.30031 8.01773 4.41668 8.01773C4.53305 8.01773 4.62762 7.92316 4.62762 7.8068V7.47809C4.62762 7.36137 4.5334 7.26715 4.41668 7.26715ZM4.62762 6.37066C4.62762 6.2543 4.53305 6.15973 4.41668 6.15973C4.30031 6.15973 4.20574 6.2543 4.20574 6.37066V6.73559C4.20574 6.85195 4.30031 6.94652 4.41668 6.94652C4.53305 6.94652 4.62762 6.85195 4.62762 6.73559V6.37066ZM5.82047 6.37066C5.82047 6.2543 5.7259 6.15973 5.60953 6.15973C5.49316 6.15973 5.39859 6.2543 5.39859 6.37066V6.73559C5.39859 6.85195 5.49316 6.94652 5.60953 6.94652C5.7259 6.94652 5.82047 6.85195 5.82047 6.73559V6.37066ZM5.60953 7.26715C5.49316 7.26715 5.39859 7.36172 5.39859 7.47809V7.8068C5.39859 7.92316 5.49316 8.01773 5.60953 8.01773C5.7259 8.01773 5.82047 7.92316 5.82047 7.8068V7.47809C5.82047 7.36137 5.7259 7.26715 5.60953 7.26715ZM5.82047 5.26289C5.82047 5.14652 5.7259 5.05195 5.60953 5.05195C5.49316 5.05195 5.39859 5.14652 5.39859 5.26289V5.62781C5.39859 5.74418 5.49316 5.83875 5.60953 5.83875C5.7259 5.83875 5.82047 5.74418 5.82047 5.62781V5.26289ZM7.01297 6.37066C7.01297 6.2543 6.9184 6.15973 6.80203 6.15973C6.68566 6.15973 6.59109 6.2543 6.59109 6.37066V6.73559C6.59109 6.85195 6.68566 6.94652 6.80203 6.94652C6.9184 6.94652 7.01297 6.85195 7.01297 6.73559V6.37066ZM7.01297 5.26289C7.01297 5.14652 6.9184 5.05195 6.80203 5.05195C6.68566 5.05195 6.59109 5.14652 6.59109 5.26289V5.62781C6.59109 5.74418 6.68566 5.83875 6.80203 5.83875C6.9184 5.83875 7.01297 5.74418 7.01297 5.62781V5.26289ZM6.80203 7.26715C6.68566 7.26715 6.59109 7.36172 6.59109 7.47809V7.8068C6.59109 7.92316 6.68566 8.01773 6.80203 8.01773C6.9184 8.01773 7.01297 7.92316 7.01297 7.8068V7.47809C7.01297 7.36137 6.9184 7.26715 6.80203 7.26715ZM17.4727 9.59168V10.3901C17.4727 10.7065 17.2051 10.9642 16.8764 10.9642H16.869V14.1982C16.869 15.3742 15.8688 16.3311 14.6391 16.3311H14.4598V17.2617C14.4598 17.3781 14.3652 17.4727 14.2488 17.4727C14.1325 17.4727 14.0379 17.3781 14.0379 17.2617V16.3311H3.96211V17.2617C3.96211 17.3781 3.86754 17.4727 3.75117 17.4727C3.6348 17.4727 3.54023 17.3781 3.54023 17.2617V16.3311H3.36094C2.13152 16.3311 1.13098 15.3742 1.13098 14.1982V10.9642H1.12359C0.794883 10.9642 0.527344 10.7068 0.527344 10.3901V9.59168C0.527344 9.27527 0.794883 9.01758 1.12359 9.01758H1.37145V2.75168C1.37145 1.52508 2.36953 0.527344 3.59613 0.527344C4.75699 0.527344 5.71254 1.42172 5.81133 2.55762H6.02262C6.13898 2.55762 6.23355 2.65219 6.23355 2.76855V3.14473C6.74367 3.36375 7.09699 3.83203 7.16977 4.37977H7.42535C7.54172 4.37977 7.63629 4.47434 7.63629 4.5907C7.63629 4.70707 7.54172 4.80164 7.42535 4.80164H3.79336C3.67699 4.80164 3.58242 4.70707 3.58242 4.5907C3.58242 4.47434 3.67699 4.37977 3.79336 4.37977H4.04895C4.12172 3.83203 4.47504 3.36375 4.98516 3.14473V2.76855C4.98516 2.65219 5.07973 2.55762 5.19609 2.55762H5.3877C5.29066 1.65445 4.52426 0.949219 3.59613 0.949219C2.60227 0.949219 1.79367 1.75781 1.79367 2.75168V9.01758H10.6727V8.99895C10.6727 8.60379 10.9941 8.28246 11.3892 8.28246H13.4719C13.867 8.28246 14.1884 8.60379 14.1884 8.99895V9.01758H16.8764C17.2051 9.01758 17.4727 9.27492 17.4727 9.59168ZM5.81168 3.29062V2.97914H5.40703V3.29062C5.40703 3.38238 5.34762 3.46395 5.26008 3.49172C4.84805 3.6225 4.55273 3.96633 4.4768 4.37941H6.74227C6.66633 3.96598 6.37102 3.6225 5.95898 3.49172C5.87109 3.46395 5.81168 3.38273 5.81168 3.29062ZM11.0946 12.5641C11.0946 12.7266 11.2268 12.8588 11.3892 12.8588H13.4719C13.6343 12.8588 13.7665 12.7266 13.7665 12.5641V11.7591H11.095V12.5641H11.0946ZM11.0946 8.99895V11.3368H13.7661V8.99895C13.7661 8.83652 13.6339 8.70434 13.4715 8.70434H11.3889C11.2268 8.70469 11.0946 8.83652 11.0946 8.99895ZM1.12359 10.5423H10.6724V9.43945H1.12359C1.02902 9.43945 0.949219 9.50906 0.949219 9.59168V10.3901C0.949219 10.4723 1.02902 10.5423 1.12359 10.5423ZM16.4468 10.9642H14.188V12.5641C14.188 12.9593 13.8667 13.2806 13.4715 13.2806H11.3889C10.9937 13.2806 10.6724 12.9593 10.6724 12.5641V10.9642H1.5532V14.1982C1.5532 15.1414 2.36426 15.9093 3.36129 15.9093H14.6391C15.6361 15.9093 16.4471 15.1418 16.4471 14.1982V10.9642H16.4468ZM17.0508 9.59168C17.0508 9.50941 16.971 9.43945 16.8764 9.43945H14.1884V10.542H16.8764C16.971 10.542 17.0508 10.4723 17.0508 10.3897V9.59168Z"/>
</mask>
<path d="M4.62762 5.62781C4.62762 5.74418 4.53305 5.83875 4.41668 5.83875C4.30031 5.83875 4.20574 5.74418 4.20574 5.62781V5.26289C4.20574 5.14652 4.30031 5.05195 4.41668 5.05195C4.53305 5.05195 4.62762 5.14652 4.62762 5.26289V5.62781ZM4.41668 7.26715C4.30031 7.26715 4.20574 7.36172 4.20574 7.47809V7.8068C4.20574 7.92316 4.30031 8.01773 4.41668 8.01773C4.53305 8.01773 4.62762 7.92316 4.62762 7.8068V7.47809C4.62762 7.36137 4.5334 7.26715 4.41668 7.26715ZM4.62762 6.37066C4.62762 6.2543 4.53305 6.15973 4.41668 6.15973C4.30031 6.15973 4.20574 6.2543 4.20574 6.37066V6.73559C4.20574 6.85195 4.30031 6.94652 4.41668 6.94652C4.53305 6.94652 4.62762 6.85195 4.62762 6.73559V6.37066ZM5.82047 6.37066C5.82047 6.2543 5.7259 6.15973 5.60953 6.15973C5.49316 6.15973 5.39859 6.2543 5.39859 6.37066V6.73559C5.39859 6.85195 5.49316 6.94652 5.60953 6.94652C5.7259 6.94652 5.82047 6.85195 5.82047 6.73559V6.37066ZM5.60953 7.26715C5.49316 7.26715 5.39859 7.36172 5.39859 7.47809V7.8068C5.39859 7.92316 5.49316 8.01773 5.60953 8.01773C5.7259 8.01773 5.82047 7.92316 5.82047 7.8068V7.47809C5.82047 7.36137 5.7259 7.26715 5.60953 7.26715ZM5.82047 5.26289C5.82047 5.14652 5.7259 5.05195 5.60953 5.05195C5.49316 5.05195 5.39859 5.14652 5.39859 5.26289V5.62781C5.39859 5.74418 5.49316 5.83875 5.60953 5.83875C5.7259 5.83875 5.82047 5.74418 5.82047 5.62781V5.26289ZM7.01297 6.37066C7.01297 6.2543 6.9184 6.15973 6.80203 6.15973C6.68566 6.15973 6.59109 6.2543 6.59109 6.37066V6.73559C6.59109 6.85195 6.68566 6.94652 6.80203 6.94652C6.9184 6.94652 7.01297 6.85195 7.01297 6.73559V6.37066ZM7.01297 5.26289C7.01297 5.14652 6.9184 5.05195 6.80203 5.05195C6.68566 5.05195 6.59109 5.14652 6.59109 5.26289V5.62781C6.59109 5.74418 6.68566 5.83875 6.80203 5.83875C6.9184 5.83875 7.01297 5.74418 7.01297 5.62781V5.26289ZM6.80203 7.26715C6.68566 7.26715 6.59109 7.36172 6.59109 7.47809V7.8068C6.59109 7.92316 6.68566 8.01773 6.80203 8.01773C6.9184 8.01773 7.01297 7.92316 7.01297 7.8068V7.47809C7.01297 7.36137 6.9184 7.26715 6.80203 7.26715ZM17.4727 9.59168V10.3901C17.4727 10.7065 17.2051 10.9642 16.8764 10.9642H16.869V14.1982C16.869 15.3742 15.8688 16.3311 14.6391 16.3311H14.4598V17.2617C14.4598 17.3781 14.3652 17.4727 14.2488 17.4727C14.1325 17.4727 14.0379 17.3781 14.0379 17.2617V16.3311H3.96211V17.2617C3.96211 17.3781 3.86754 17.4727 3.75117 17.4727C3.6348 17.4727 3.54023 17.3781 3.54023 17.2617V16.3311H3.36094C2.13152 16.3311 1.13098 15.3742 1.13098 14.1982V10.9642H1.12359C0.794883 10.9642 0.527344 10.7068 0.527344 10.3901V9.59168C0.527344 9.27527 0.794883 9.01758 1.12359 9.01758H1.37145V2.75168C1.37145 1.52508 2.36953 0.527344 3.59613 0.527344C4.75699 0.527344 5.71254 1.42172 5.81133 2.55762H6.02262C6.13898 2.55762 6.23355 2.65219 6.23355 2.76855V3.14473C6.74367 3.36375 7.09699 3.83203 7.16977 4.37977H7.42535C7.54172 4.37977 7.63629 4.47434 7.63629 4.5907C7.63629 4.70707 7.54172 4.80164 7.42535 4.80164H3.79336C3.67699 4.80164 3.58242 4.70707 3.58242 4.5907C3.58242 4.47434 3.67699 4.37977 3.79336 4.37977H4.04895C4.12172 3.83203 4.47504 3.36375 4.98516 3.14473V2.76855C4.98516 2.65219 5.07973 2.55762 5.19609 2.55762H5.3877C5.29066 1.65445 4.52426 0.949219 3.59613 0.949219C2.60227 0.949219 1.79367 1.75781 1.79367 2.75168V9.01758H10.6727V8.99895C10.6727 8.60379 10.9941 8.28246 11.3892 8.28246H13.4719C13.867 8.28246 14.1884 8.60379 14.1884 8.99895V9.01758H16.8764C17.2051 9.01758 17.4727 9.27492 17.4727 9.59168ZM5.81168 3.29062V2.97914H5.40703V3.29062C5.40703 3.38238 5.34762 3.46395 5.26008 3.49172C4.84805 3.6225 4.55273 3.96633 4.4768 4.37941H6.74227C6.66633 3.96598 6.37102 3.6225 5.95898 3.49172C5.87109 3.46395 5.81168 3.38273 5.81168 3.29062ZM11.0946 12.5641C11.0946 12.7266 11.2268 12.8588 11.3892 12.8588H13.4719C13.6343 12.8588 13.7665 12.7266 13.7665 12.5641V11.7591H11.095V12.5641H11.0946ZM11.0946 8.99895V11.3368H13.7661V8.99895C13.7661 8.83652 13.6339 8.70434 13.4715 8.70434H11.3889C11.2268 8.70469 11.0946 8.83652 11.0946 8.99895ZM1.12359 10.5423H10.6724V9.43945H1.12359C1.02902 9.43945 0.949219 9.50906 0.949219 9.59168V10.3901C0.949219 10.4723 1.02902 10.5423 1.12359 10.5423ZM16.4468 10.9642H14.188V12.5641C14.188 12.9593 13.8667 13.2806 13.4715 13.2806H11.3889C10.9937 13.2806 10.6724 12.9593 10.6724 12.5641V10.9642H1.5532V14.1982C1.5532 15.1414 2.36426 15.9093 3.36129 15.9093H14.6391C15.6361 15.9093 16.4471 15.1418 16.4471 14.1982V10.9642H16.4468ZM17.0508 9.59168C17.0508 9.50941 16.971 9.43945 16.8764 9.43945H14.1884V10.542H16.8764C16.971 10.542 17.0508 10.4723 17.0508 10.3897V9.59168Z" fill="#222222"/>
<path d="M4.62762 5.62781C4.62762 5.74418 4.53305 5.83875 4.41668 5.83875C4.30031 5.83875 4.20574 5.74418 4.20574 5.62781V5.26289C4.20574 5.14652 4.30031 5.05195 4.41668 5.05195C4.53305 5.05195 4.62762 5.14652 4.62762 5.26289V5.62781ZM4.41668 7.26715C4.30031 7.26715 4.20574 7.36172 4.20574 7.47809V7.8068C4.20574 7.92316 4.30031 8.01773 4.41668 8.01773C4.53305 8.01773 4.62762 7.92316 4.62762 7.8068V7.47809C4.62762 7.36137 4.5334 7.26715 4.41668 7.26715ZM4.62762 6.37066C4.62762 6.2543 4.53305 6.15973 4.41668 6.15973C4.30031 6.15973 4.20574 6.2543 4.20574 6.37066V6.73559C4.20574 6.85195 4.30031 6.94652 4.41668 6.94652C4.53305 6.94652 4.62762 6.85195 4.62762 6.73559V6.37066ZM5.82047 6.37066C5.82047 6.2543 5.7259 6.15973 5.60953 6.15973C5.49316 6.15973 5.39859 6.2543 5.39859 6.37066V6.73559C5.39859 6.85195 5.49316 6.94652 5.60953 6.94652C5.7259 6.94652 5.82047 6.85195 5.82047 6.73559V6.37066ZM5.60953 7.26715C5.49316 7.26715 5.39859 7.36172 5.39859 7.47809V7.8068C5.39859 7.92316 5.49316 8.01773 5.60953 8.01773C5.7259 8.01773 5.82047 7.92316 5.82047 7.8068V7.47809C5.82047 7.36137 5.7259 7.26715 5.60953 7.26715ZM5.82047 5.26289C5.82047 5.14652 5.7259 5.05195 5.60953 5.05195C5.49316 5.05195 5.39859 5.14652 5.39859 5.26289V5.62781C5.39859 5.74418 5.49316 5.83875 5.60953 5.83875C5.7259 5.83875 5.82047 5.74418 5.82047 5.62781V5.26289ZM7.01297 6.37066C7.01297 6.2543 6.9184 6.15973 6.80203 6.15973C6.68566 6.15973 6.59109 6.2543 6.59109 6.37066V6.73559C6.59109 6.85195 6.68566 6.94652 6.80203 6.94652C6.9184 6.94652 7.01297 6.85195 7.01297 6.73559V6.37066ZM7.01297 5.26289C7.01297 5.14652 6.9184 5.05195 6.80203 5.05195C6.68566 5.05195 6.59109 5.14652 6.59109 5.26289V5.62781C6.59109 5.74418 6.68566 5.83875 6.80203 5.83875C6.9184 5.83875 7.01297 5.74418 7.01297 5.62781V5.26289ZM6.80203 7.26715C6.68566 7.26715 6.59109 7.36172 6.59109 7.47809V7.8068C6.59109 7.92316 6.68566 8.01773 6.80203 8.01773C6.9184 8.01773 7.01297 7.92316 7.01297 7.8068V7.47809C7.01297 7.36137 6.9184 7.26715 6.80203 7.26715ZM17.4727 9.59168V10.3901C17.4727 10.7065 17.2051 10.9642 16.8764 10.9642H16.869V14.1982C16.869 15.3742 15.8688 16.3311 14.6391 16.3311H14.4598V17.2617C14.4598 17.3781 14.3652 17.4727 14.2488 17.4727C14.1325 17.4727 14.0379 17.3781 14.0379 17.2617V16.3311H3.96211V17.2617C3.96211 17.3781 3.86754 17.4727 3.75117 17.4727C3.6348 17.4727 3.54023 17.3781 3.54023 17.2617V16.3311H3.36094C2.13152 16.3311 1.13098 15.3742 1.13098 14.1982V10.9642H1.12359C0.794883 10.9642 0.527344 10.7068 0.527344 10.3901V9.59168C0.527344 9.27527 0.794883 9.01758 1.12359 9.01758H1.37145V2.75168C1.37145 1.52508 2.36953 0.527344 3.59613 0.527344C4.75699 0.527344 5.71254 1.42172 5.81133 2.55762H6.02262C6.13898 2.55762 6.23355 2.65219 6.23355 2.76855V3.14473C6.74367 3.36375 7.09699 3.83203 7.16977 4.37977H7.42535C7.54172 4.37977 7.63629 4.47434 7.63629 4.5907C7.63629 4.70707 7.54172 4.80164 7.42535 4.80164H3.79336C3.67699 4.80164 3.58242 4.70707 3.58242 4.5907C3.58242 4.47434 3.67699 4.37977 3.79336 4.37977H4.04895C4.12172 3.83203 4.47504 3.36375 4.98516 3.14473V2.76855C4.98516 2.65219 5.07973 2.55762 5.19609 2.55762H5.3877C5.29066 1.65445 4.52426 0.949219 3.59613 0.949219C2.60227 0.949219 1.79367 1.75781 1.79367 2.75168V9.01758H10.6727V8.99895C10.6727 8.60379 10.9941 8.28246 11.3892 8.28246H13.4719C13.867 8.28246 14.1884 8.60379 14.1884 8.99895V9.01758H16.8764C17.2051 9.01758 17.4727 9.27492 17.4727 9.59168ZM5.81168 3.29062V2.97914H5.40703V3.29062C5.40703 3.38238 5.34762 3.46395 5.26008 3.49172C4.84805 3.6225 4.55273 3.96633 4.4768 4.37941H6.74227C6.66633 3.96598 6.37102 3.6225 5.95898 3.49172C5.87109 3.46395 5.81168 3.38273 5.81168 3.29062ZM11.0946 12.5641C11.0946 12.7266 11.2268 12.8588 11.3892 12.8588H13.4719C13.6343 12.8588 13.7665 12.7266 13.7665 12.5641V11.7591H11.095V12.5641H11.0946ZM11.0946 8.99895V11.3368H13.7661V8.99895C13.7661 8.83652 13.6339 8.70434 13.4715 8.70434H11.3889C11.2268 8.70469 11.0946 8.83652 11.0946 8.99895ZM1.12359 10.5423H10.6724V9.43945H1.12359C1.02902 9.43945 0.949219 9.50906 0.949219 9.59168V10.3901C0.949219 10.4723 1.02902 10.5423 1.12359 10.5423ZM16.4468 10.9642H14.188V12.5641C14.188 12.9593 13.8667 13.2806 13.4715 13.2806H11.3889C10.9937 13.2806 10.6724 12.9593 10.6724 12.5641V10.9642H1.5532V14.1982C1.5532 15.1414 2.36426 15.9093 3.36129 15.9093H14.6391C15.6361 15.9093 16.4471 15.1418 16.4471 14.1982V10.9642H16.4468ZM17.0508 9.59168C17.0508 9.50941 16.971 9.43945 16.8764 9.43945H14.1884V10.542H16.8764C16.971 10.542 17.0508 10.4723 17.0508 10.3897V9.59168Z" stroke="#222222" stroke-width="0.4" mask="url(#path-1-outside-1_102_4328)"/>
</g>
<defs>
<clipPath id="clip0_102_4328">
<rect width="18" height="18" fill="white"/>
</clipPath>
</defs>
</svg>
