<svg width="18" height="18" viewBox="0 0 18 18" fill="none" xmlns="http://www.w3.org/2000/svg">
<mask id="path-1-outside-1_102_4393" maskUnits="userSpaceOnUse" x="-0.470703" y="4.13525" width="19" height="9" fill="black">
<rect fill="white" x="-0.470703" y="4.13525" width="19" height="9"/>
<path d="M1.05871 10.0853H2.06459V10.3764C2.06459 10.5088 2.144 10.6147 2.27636 10.6411L3.17636 10.8529V11.9117C3.17636 12.4411 3.59989 12.8647 4.1293 12.8647H4.23518C4.49989 12.8647 4.73812 12.7588 4.92341 12.5735C5.10871 12.7588 5.34694 12.8647 5.61165 12.8647C6.14106 12.8647 6.56459 12.4411 6.56459 11.9117V10.0853H7.22636C7.38518 10.0853 7.49106 9.97937 7.49106 9.82055C7.49106 9.66172 7.38518 9.55584 7.22636 9.55584H6.56459V8.44408H11.4352V9.55584H8.57636C8.41753 9.55584 8.31165 9.66172 8.31165 9.82055C8.31165 9.97937 8.41753 10.0853 8.57636 10.0853H11.4352V11.9117C11.4352 12.4411 11.8587 12.8647 12.3881 12.8647H12.494C12.7587 12.8647 12.9969 12.7588 13.1822 12.5735C13.3675 12.7588 13.6058 12.8647 13.8705 12.8647C14.3999 12.8647 14.8234 12.4411 14.8234 11.9117V10.8529L15.7234 10.6411C15.8558 10.6147 15.9352 10.5088 15.9352 10.3764V10.0853H16.9411C17.2322 10.0853 17.4705 9.84702 17.4705 9.55584V8.44408C17.4705 8.1529 17.2322 7.91467 16.9411 7.91467H15.9352V7.62349C15.9352 7.49114 15.8558 7.38525 15.7234 7.35878L14.8234 7.14702V6.0882C14.8234 5.55878 14.3999 5.13525 13.8705 5.13525C13.6058 5.13525 13.3675 5.24114 13.1822 5.42643C12.9969 5.24114 12.7587 5.13525 12.494 5.13525H12.3881C11.8587 5.13525 11.4352 5.55878 11.4352 6.0882V7.91467H6.56459V6.0882C6.56459 5.55878 6.14106 5.13525 5.61165 5.13525C5.34694 5.13525 5.10871 5.24114 4.92341 5.42643C4.73812 5.24114 4.49989 5.13525 4.23518 5.13525H4.1293C3.59989 5.13525 3.17636 5.55878 3.17636 6.0882V7.14702L2.27636 7.35878C2.144 7.38525 2.06459 7.49114 2.06459 7.62349V7.91467H1.05871C0.767532 7.91467 0.529297 8.1529 0.529297 8.44408V9.55584C0.529297 9.84702 0.767532 10.0853 1.05871 10.0853ZM15.9352 8.44408H16.9411V9.55584H15.9352V8.44408ZM14.8234 7.7029L15.4058 7.83525V10.1647L14.8234 10.297V7.7029ZM13.4469 6.0882C13.4469 5.84996 13.6322 5.66467 13.8705 5.66467C14.1087 5.66467 14.294 5.87643 14.294 6.0882V11.8853C14.294 12.1235 14.1087 12.3088 13.8705 12.3088C13.6322 12.3088 13.4469 12.1235 13.4469 11.8853V6.0882ZM11.9646 6.0882C11.9646 5.84996 12.1499 5.66467 12.3881 5.66467H12.494C12.7322 5.66467 12.9175 5.84996 12.9175 6.0882V11.9117C12.9175 12.15 12.7322 12.3353 12.494 12.3353H12.3881C12.1499 12.3353 11.9646 12.15 11.9646 11.9117C11.9646 9.84702 11.9646 8.20584 11.9646 6.0882ZM5.18812 6.0882C5.18812 5.84996 5.37341 5.66467 5.61165 5.66467C5.84989 5.66467 6.03518 5.84996 6.03518 6.0882V11.8853C6.03518 12.1235 5.84989 12.3088 5.61165 12.3088C5.37341 12.3088 5.18812 12.1235 5.18812 11.8853V6.0882ZM3.70577 6.0882C3.70577 5.84996 3.89106 5.66467 4.1293 5.66467H4.23518C4.47341 5.66467 4.65871 5.84996 4.65871 6.0882V11.9117C4.65871 12.15 4.47341 12.3353 4.23518 12.3353H4.1293C3.89106 12.3353 3.70577 12.15 3.70577 11.9117C3.70577 9.66172 3.70577 8.12643 3.70577 6.0882ZM2.594 7.83525L3.17636 7.7029V10.297L2.594 10.1647C2.594 10.1117 2.594 7.80878 2.594 7.83525ZM1.05871 8.44408H2.06459V9.55584H1.05871V8.44408Z"/>
</mask>
<path d="M1.05871 10.0853H2.06459V10.3764C2.06459 10.5088 2.144 10.6147 2.27636 10.6411L3.17636 10.8529V11.9117C3.17636 12.4411 3.59989 12.8647 4.1293 12.8647H4.23518C4.49989 12.8647 4.73812 12.7588 4.92341 12.5735C5.10871 12.7588 5.34694 12.8647 5.61165 12.8647C6.14106 12.8647 6.56459 12.4411 6.56459 11.9117V10.0853H7.22636C7.38518 10.0853 7.49106 9.97937 7.49106 9.82055C7.49106 9.66172 7.38518 9.55584 7.22636 9.55584H6.56459V8.44408H11.4352V9.55584H8.57636C8.41753 9.55584 8.31165 9.66172 8.31165 9.82055C8.31165 9.97937 8.41753 10.0853 8.57636 10.0853H11.4352V11.9117C11.4352 12.4411 11.8587 12.8647 12.3881 12.8647H12.494C12.7587 12.8647 12.9969 12.7588 13.1822 12.5735C13.3675 12.7588 13.6058 12.8647 13.8705 12.8647C14.3999 12.8647 14.8234 12.4411 14.8234 11.9117V10.8529L15.7234 10.6411C15.8558 10.6147 15.9352 10.5088 15.9352 10.3764V10.0853H16.9411C17.2322 10.0853 17.4705 9.84702 17.4705 9.55584V8.44408C17.4705 8.1529 17.2322 7.91467 16.9411 7.91467H15.9352V7.62349C15.9352 7.49114 15.8558 7.38525 15.7234 7.35878L14.8234 7.14702V6.0882C14.8234 5.55878 14.3999 5.13525 13.8705 5.13525C13.6058 5.13525 13.3675 5.24114 13.1822 5.42643C12.9969 5.24114 12.7587 5.13525 12.494 5.13525H12.3881C11.8587 5.13525 11.4352 5.55878 11.4352 6.0882V7.91467H6.56459V6.0882C6.56459 5.55878 6.14106 5.13525 5.61165 5.13525C5.34694 5.13525 5.10871 5.24114 4.92341 5.42643C4.73812 5.24114 4.49989 5.13525 4.23518 5.13525H4.1293C3.59989 5.13525 3.17636 5.55878 3.17636 6.0882V7.14702L2.27636 7.35878C2.144 7.38525 2.06459 7.49114 2.06459 7.62349V7.91467H1.05871C0.767532 7.91467 0.529297 8.1529 0.529297 8.44408V9.55584C0.529297 9.84702 0.767532 10.0853 1.05871 10.0853ZM15.9352 8.44408H16.9411V9.55584H15.9352V8.44408ZM14.8234 7.7029L15.4058 7.83525V10.1647L14.8234 10.297V7.7029ZM13.4469 6.0882C13.4469 5.84996 13.6322 5.66467 13.8705 5.66467C14.1087 5.66467 14.294 5.87643 14.294 6.0882V11.8853C14.294 12.1235 14.1087 12.3088 13.8705 12.3088C13.6322 12.3088 13.4469 12.1235 13.4469 11.8853V6.0882ZM11.9646 6.0882C11.9646 5.84996 12.1499 5.66467 12.3881 5.66467H12.494C12.7322 5.66467 12.9175 5.84996 12.9175 6.0882V11.9117C12.9175 12.15 12.7322 12.3353 12.494 12.3353H12.3881C12.1499 12.3353 11.9646 12.15 11.9646 11.9117C11.9646 9.84702 11.9646 8.20584 11.9646 6.0882ZM5.18812 6.0882C5.18812 5.84996 5.37341 5.66467 5.61165 5.66467C5.84989 5.66467 6.03518 5.84996 6.03518 6.0882V11.8853C6.03518 12.1235 5.84989 12.3088 5.61165 12.3088C5.37341 12.3088 5.18812 12.1235 5.18812 11.8853V6.0882ZM3.70577 6.0882C3.70577 5.84996 3.89106 5.66467 4.1293 5.66467H4.23518C4.47341 5.66467 4.65871 5.84996 4.65871 6.0882V11.9117C4.65871 12.15 4.47341 12.3353 4.23518 12.3353H4.1293C3.89106 12.3353 3.70577 12.15 3.70577 11.9117C3.70577 9.66172 3.70577 8.12643 3.70577 6.0882ZM2.594 7.83525L3.17636 7.7029V10.297L2.594 10.1647C2.594 10.1117 2.594 7.80878 2.594 7.83525ZM1.05871 8.44408H2.06459V9.55584H1.05871V8.44408Z" fill="#222222"/>
<path d="M1.05871 10.0853H2.06459V10.3764C2.06459 10.5088 2.144 10.6147 2.27636 10.6411L3.17636 10.8529V11.9117C3.17636 12.4411 3.59989 12.8647 4.1293 12.8647H4.23518C4.49989 12.8647 4.73812 12.7588 4.92341 12.5735C5.10871 12.7588 5.34694 12.8647 5.61165 12.8647C6.14106 12.8647 6.56459 12.4411 6.56459 11.9117V10.0853H7.22636C7.38518 10.0853 7.49106 9.97937 7.49106 9.82055C7.49106 9.66172 7.38518 9.55584 7.22636 9.55584H6.56459V8.44408H11.4352V9.55584H8.57636C8.41753 9.55584 8.31165 9.66172 8.31165 9.82055C8.31165 9.97937 8.41753 10.0853 8.57636 10.0853H11.4352V11.9117C11.4352 12.4411 11.8587 12.8647 12.3881 12.8647H12.494C12.7587 12.8647 12.9969 12.7588 13.1822 12.5735C13.3675 12.7588 13.6058 12.8647 13.8705 12.8647C14.3999 12.8647 14.8234 12.4411 14.8234 11.9117V10.8529L15.7234 10.6411C15.8558 10.6147 15.9352 10.5088 15.9352 10.3764V10.0853H16.9411C17.2322 10.0853 17.4705 9.84702 17.4705 9.55584V8.44408C17.4705 8.1529 17.2322 7.91467 16.9411 7.91467H15.9352V7.62349C15.9352 7.49114 15.8558 7.38525 15.7234 7.35878L14.8234 7.14702V6.0882C14.8234 5.55878 14.3999 5.13525 13.8705 5.13525C13.6058 5.13525 13.3675 5.24114 13.1822 5.42643C12.9969 5.24114 12.7587 5.13525 12.494 5.13525H12.3881C11.8587 5.13525 11.4352 5.55878 11.4352 6.0882V7.91467H6.56459V6.0882C6.56459 5.55878 6.14106 5.13525 5.61165 5.13525C5.34694 5.13525 5.10871 5.24114 4.92341 5.42643C4.73812 5.24114 4.49989 5.13525 4.23518 5.13525H4.1293C3.59989 5.13525 3.17636 5.55878 3.17636 6.0882V7.14702L2.27636 7.35878C2.144 7.38525 2.06459 7.49114 2.06459 7.62349V7.91467H1.05871C0.767532 7.91467 0.529297 8.1529 0.529297 8.44408V9.55584C0.529297 9.84702 0.767532 10.0853 1.05871 10.0853ZM15.9352 8.44408H16.9411V9.55584H15.9352V8.44408ZM14.8234 7.7029L15.4058 7.83525V10.1647L14.8234 10.297V7.7029ZM13.4469 6.0882C13.4469 5.84996 13.6322 5.66467 13.8705 5.66467C14.1087 5.66467 14.294 5.87643 14.294 6.0882V11.8853C14.294 12.1235 14.1087 12.3088 13.8705 12.3088C13.6322 12.3088 13.4469 12.1235 13.4469 11.8853V6.0882ZM11.9646 6.0882C11.9646 5.84996 12.1499 5.66467 12.3881 5.66467H12.494C12.7322 5.66467 12.9175 5.84996 12.9175 6.0882V11.9117C12.9175 12.15 12.7322 12.3353 12.494 12.3353H12.3881C12.1499 12.3353 11.9646 12.15 11.9646 11.9117C11.9646 9.84702 11.9646 8.20584 11.9646 6.0882ZM5.18812 6.0882C5.18812 5.84996 5.37341 5.66467 5.61165 5.66467C5.84989 5.66467 6.03518 5.84996 6.03518 6.0882V11.8853C6.03518 12.1235 5.84989 12.3088 5.61165 12.3088C5.37341 12.3088 5.18812 12.1235 5.18812 11.8853V6.0882ZM3.70577 6.0882C3.70577 5.84996 3.89106 5.66467 4.1293 5.66467H4.23518C4.47341 5.66467 4.65871 5.84996 4.65871 6.0882V11.9117C4.65871 12.15 4.47341 12.3353 4.23518 12.3353H4.1293C3.89106 12.3353 3.70577 12.15 3.70577 11.9117C3.70577 9.66172 3.70577 8.12643 3.70577 6.0882ZM2.594 7.83525L3.17636 7.7029V10.297L2.594 10.1647C2.594 10.1117 2.594 7.80878 2.594 7.83525ZM1.05871 8.44408H2.06459V9.55584H1.05871V8.44408Z" stroke="#222222" stroke-width="0.2" mask="url(#path-1-outside-1_102_4393)"/>
</svg>
