<svg width="24" height="24" viewBox="0 0 24 24" fill="none" xmlns="http://www.w3.org/2000/svg">
<path d="M12 6.93994V10.2699" stroke="white" stroke-width="1.5" stroke-miterlimit="10" stroke-linecap="round"/>
<path d="M12.0199 2.5C8.3399 2.5 5.3599 5.48 5.3599 9.16V11.26C5.3599 11.94 5.0799 12.96 4.7299 13.54L3.4599 15.66C2.6799 16.97 3.2199 18.43 4.6599 18.91C9.4399 20.5 14.6099 20.5 19.3899 18.91C20.7399 18.46 21.3199 16.88 20.5899 15.66L19.3199 13.54C18.9699 12.96 18.6899 11.93 18.6899 11.26V9.16C18.6799 5.5 15.6799 2.5 12.0199 2.5Z" stroke="white" stroke-width="1.5" stroke-miterlimit="10" stroke-linecap="round"/>
<path d="M15.3299 19.3198C15.3299 21.1498 13.8299 22.6498 11.9999 22.6498C11.0899 22.6498 10.2499 22.2698 9.64992 21.6698C9.04992 21.0698 8.66992 20.2298 8.66992 19.3198" stroke="white" stroke-width="1.5" stroke-miterlimit="10"/>
</svg>
