<svg width="18" height="18" viewBox="0 0 18 18" fill="none" xmlns="http://www.w3.org/2000/svg">
<g clip-path="url(#clip0_102_4341)">
<path d="M9.89789 4.36768H6.67969V13.6328H7.73438V10.6958H9.89789C11.6127 10.6958 13.0078 9.30066 13.0078 7.58588V7.47753C13.0078 5.76278 11.6127 4.36768 9.89789 4.36768ZM11.9531 7.58591C11.9531 8.71914 11.0312 9.64111 9.89789 9.64111H7.73438V5.42236H9.89789C11.0312 5.42236 11.9531 6.34434 11.9531 7.47756V7.58591Z" fill="#222222"/>
<path d="M15.364 2.63602C13.6641 0.936141 11.404 0 9 0C6.59602 0 4.33593 0.936141 2.63602 2.63602C0.936176 4.33593 0 6.59605 0 9C0 11.4039 0.936176 13.6641 2.63605 15.3639C4.33593 17.0638 6.59602 18 9 18C11.404 18 13.6641 17.0639 15.364 15.364C17.0638 13.6641 18 11.4039 18 9C18 6.59605 17.0638 4.33593 15.364 2.63602ZM14.6182 14.6182C13.1175 16.1189 11.1222 16.9453 9 16.9453C6.87772 16.9453 4.8825 16.1189 3.38182 14.6182C1.88114 13.1175 1.05469 11.1222 1.05469 9C1.05469 6.87776 1.88114 4.8825 3.38182 3.38179C4.8825 1.88114 6.87772 1.05469 9 1.05469C11.1222 1.05469 13.1175 1.88114 14.6182 3.38179C16.1189 4.8825 16.9453 6.87776 16.9453 9C16.9453 11.1222 16.1189 13.1175 14.6182 14.6182Z" fill="#222222"/>
</g>
<defs>
<clipPath id="clip0_102_4341">
<rect width="18" height="18" fill="white"/>
</clipPath>
</defs>
</svg>
