<svg width="18" height="18" viewBox="0 0 18 18" fill="none" xmlns="http://www.w3.org/2000/svg">
<g clip-path="url(#clip0_102_4301)">
<path d="M9 4.00781C6.2473 4.00781 4.00781 6.2473 4.00781 9C4.00781 11.7527 6.2473 13.9922 9 13.9922C11.7527 13.9922 13.9922 11.7527 13.9922 9C13.9922 6.2473 11.7527 4.00781 9 4.00781ZM9 13.2891C6.635 13.2891 4.71094 11.365 4.71094 9C4.71094 6.635 6.635 4.71094 9 4.71094C11.365 4.71094 13.2891 6.635 13.2891 9C13.2891 11.365 11.365 13.2891 9 13.2891Z" fill="#222222"/>
<path d="M17.8134 0.0410625C17.6985 -0.0198984 17.5594 -0.0125507 17.4516 0.0602227C15.7257 1.22639 14.6953 3.16617 14.6953 5.24914V9.81074C14.6953 10.3 14.8859 10.76 15.2318 11.106L15.8906 11.7648V16.9453C15.8906 17.5269 16.3638 18 16.9453 18C17.5269 18 18 17.5269 18 16.9453V0.351563C18 0.22152 17.9282 0.102094 17.8134 0.0410625ZM17.2969 16.9453C17.2969 17.1392 17.1392 17.2969 16.9453 17.2969C16.7515 17.2969 16.5938 17.1392 16.5938 16.9453V11.6191C16.5938 11.5259 16.5567 11.4365 16.4908 11.3706L15.729 10.6088C15.5158 10.3956 15.3984 10.1122 15.3984 9.81074V5.24914C15.3984 3.63266 16.0974 2.11342 17.2969 1.06513V16.9453Z" fill="#222222"/>
<path d="M8.19325 6.21165C8.11703 6.03309 7.91038 5.95016 7.73186 6.02634C6.5389 6.53562 5.76807 7.70277 5.76807 8.99979C5.76807 9.19392 5.92546 9.35135 6.11963 9.35135C6.3138 9.35135 6.47119 9.19392 6.47119 8.99979C6.47119 7.98486 7.0744 7.07154 8.00794 6.67304C8.1865 6.59682 8.26947 6.39025 8.19325 6.21165Z" fill="#222222"/>
<path d="M8.99978 5.76807L8.98203 5.7681C8.78786 5.7694 8.63152 5.92785 8.63282 6.12202C8.63412 6.31538 8.79127 6.47123 8.98435 6.47123C8.98512 6.47123 8.98597 6.47123 8.98674 6.47123L8.99978 6.47119C9.19395 6.47119 9.35134 6.3138 9.35134 6.11963C9.35134 5.92546 9.19395 5.76807 8.99978 5.76807Z" fill="#222222"/>
<path d="M13.8732 4.37631C13.2521 3.72184 12.5199 3.20687 11.6971 2.84575C10.845 2.47182 9.93752 2.28223 8.99976 2.28223C7.9282 2.28223 6.90389 2.52713 5.9553 3.01017C5.7823 3.09827 5.71343 3.30995 5.80153 3.48299C5.88967 3.65596 6.10134 3.72479 6.27438 3.63673C7.12319 3.20452 8.04014 2.98535 8.99976 2.98535C10.666 2.98535 12.2157 3.65121 13.3632 4.86034C13.4323 4.93318 13.5252 4.96989 13.6183 4.96989C13.7052 4.96989 13.7922 4.93786 13.8602 4.87331C14.0011 4.73965 14.0069 4.51714 13.8732 4.37631Z" fill="#222222"/>
<path d="M14.2148 12.6695C14.0625 12.5491 13.8414 12.575 13.721 12.7273C12.5717 14.181 10.8509 15.0147 9.00007 15.0147C7.84167 15.0147 6.71713 14.6848 5.74801 14.0606C5.58481 13.9555 5.3672 14.0026 5.26208 14.1658C5.15696 14.3291 5.20407 14.5466 5.3673 14.6517C6.45019 15.3492 7.70639 15.7178 9.00007 15.7178C11.0673 15.7178 12.989 14.7867 14.2726 13.1633C14.393 13.0111 14.3672 12.79 14.2148 12.6695Z" fill="#222222"/>
<path d="M4.77977 13.2864L4.77461 13.2805C4.77274 13.2782 4.77088 13.2758 4.76894 13.2736C4.64389 13.125 4.42213 13.106 4.27359 13.2311C4.12506 13.3561 4.106 13.5779 4.23109 13.7264L4.2345 13.7305L4.23468 13.7303C4.2384 13.7351 4.24227 13.7398 4.24628 13.7444C4.31582 13.8254 4.41418 13.867 4.51318 13.867C4.59425 13.867 4.67571 13.8391 4.74202 13.7822C4.88932 13.6557 4.90623 13.4337 4.77977 13.2864Z" fill="#222222"/>
<path d="M4.35938 0C4.16521 0 4.00781 0.157395 4.00781 0.351562V4.14844H3.37472C3.37475 4.14647 3.375 4.14457 3.375 4.14257V0.351562C3.375 0.157395 3.21761 0 3.02344 0C2.82927 0 2.67188 0.157395 2.67188 0.351562V4.14257C2.67188 4.14454 2.67216 4.14647 2.67216 4.14844H2.03878C2.03882 4.14647 2.03906 4.14457 2.03906 4.14257V0.351562C2.03906 0.157395 1.88167 0 1.6875 0C1.49333 0 1.33594 0.157395 1.33594 0.351562V4.14257C1.33594 4.14454 1.33622 4.14647 1.33622 4.14844H0.703125V0.351562C0.703125 0.157395 0.54573 0 0.351562 0C0.157395 0 0 0.157395 0 0.351562V4.64062C0 5.50301 0.523266 6.28133 1.30078 6.61778V16.9453C1.30078 17.5269 1.77391 18 2.35547 18C2.93702 18 3.41016 17.5269 3.41016 16.9453V6.61778C4.18767 6.28133 4.71094 5.50301 4.71094 4.64062V0.351562C4.71094 0.157395 4.55354 0 4.35938 0ZM2.961 6.03352C2.8106 6.07697 2.70703 6.21468 2.70703 6.37126V16.9453C2.70703 17.1392 2.54932 17.2969 2.35547 17.2969C2.16162 17.2969 2.00391 17.1392 2.00391 16.9453V6.37126C2.00391 6.21468 1.90037 6.07697 1.74994 6.03352C1.2021 5.87521 0.801387 5.40496 0.719016 4.85156H3.99189C3.90955 5.40496 3.50884 5.87521 2.961 6.03352Z" fill="#222222"/>
</g>
<defs>
<clipPath id="clip0_102_4301">
<rect width="18" height="18" fill="white"/>
</clipPath>
</defs>
</svg>
