<svg width="18" height="18" viewBox="0 0 18 18" fill="none" xmlns="http://www.w3.org/2000/svg">
<g clip-path="url(#clip0_102_4364)">
<path d="M3.09375 16.875C3.24908 16.875 3.375 16.7491 3.375 16.5938C3.375 16.4384 3.24908 16.3125 3.09375 16.3125C2.93842 16.3125 2.8125 16.4384 2.8125 16.5938C2.8125 16.7491 2.93842 16.875 3.09375 16.875Z" fill="#222222"/>
<path d="M13.7812 16.875C13.9366 16.875 14.0625 16.7491 14.0625 16.5938C14.0625 16.4384 13.9366 16.3125 13.7812 16.3125C13.6259 16.3125 13.5 16.4384 13.5 16.5938C13.5 16.7491 13.6259 16.875 13.7812 16.875Z" fill="#222222"/>
<mask id="path-3-outside-1_102_4364" maskUnits="userSpaceOnUse" x="-1" y="-1" width="20" height="20" fill="black">
<rect fill="white" x="-1" y="-1" width="20" height="20"/>
<path d="M17.9031 12.3618L17.2406 6.62119C17.1751 6.0532 16.6945 5.625 16.123 5.625H15.031C15.1279 5.45887 15.1875 5.26835 15.1875 5.0625V4.78125C15.1875 4.6258 15.0616 4.5 14.9062 4.5H14.6107C14.4881 2.90062 13.3339 1.58858 11.8125 1.22721V1.125C11.8125 0.825075 11.6954 0.542728 11.4825 0.329878C11.2698 0.117028 10.9874 0 10.6875 0C10.0672 0 9.5625 0.504534 9.5625 1.125V1.22718C8.64886 1.44416 7.86648 2.00213 7.36096 2.76196C7.34411 2.74182 7.33019 2.72008 7.3125 2.70042V0.84375C7.3125 0.688303 7.18656 0.5625 7.03125 0.5625H5.90625C5.75094 0.5625 5.625 0.688303 5.625 0.84375V2.7007C5.26615 3.10199 5.0625 3.63097 5.0625 4.17094V5.62497H4.12701C3.71453 5.62497 3.35205 5.84986 3.15613 6.18747H0.84375C0.378478 6.18747 0 6.56595 0 7.03122C0 7.49649 0.378478 7.87497 0.84375 7.87497H2.86462L2.34681 12.3623C2.30988 12.6831 2.45528 12.9916 2.72638 13.1676C2.99649 13.3431 3.33652 13.3503 3.62438 13.1795C3.73002 13.1169 3.8261 13.0611 3.9375 13.0185V15.4759C3.70173 15.2974 3.41153 15.1875 3.09375 15.1875C2.3184 15.1875 1.6875 15.8184 1.6875 16.5937C1.6875 17.3691 2.3184 18 3.09375 18C3.8691 18 4.5 17.3691 4.5 16.5937V16.3125H12.4034C12.3849 16.4034 12.375 16.4974 12.375 16.5937C12.375 17.3691 13.0059 18 13.7812 18C14.5566 18 15.1875 17.3691 15.1875 16.5937C15.1875 16.4974 15.1776 16.4034 15.1591 16.3125H16.5938C16.7491 16.3125 16.875 16.1867 16.875 16.0312V13.2804C17.0939 13.3318 17.3268 13.2944 17.5232 13.1671C17.7944 12.9913 17.94 12.6826 17.9031 12.3618ZM7.3125 5.625C7.00228 5.625 6.75 5.37258 6.75 5.0625H14.625C14.625 5.37258 14.3727 5.625 14.0625 5.625H7.3125ZM10.125 1.125C10.125 0.814922 10.3773 0.5625 10.6875 0.5625C10.8372 0.5625 10.9784 0.621 11.0848 0.727566C11.1914 0.834131 11.25 0.975319 11.25 1.125V1.13926C11.1569 1.13212 11.0637 1.125 10.9688 1.125H10.4061C10.3112 1.125 10.2181 1.13212 10.125 1.13926V1.125ZM10.4061 1.6875H10.9688C12.5799 1.6875 13.9073 2.92539 14.0499 4.5H7.32513C7.46767 2.92539 8.79497 1.6875 10.4061 1.6875ZM6.1875 1.125H6.75V1.6875H6.1875V1.125ZM5.625 4.17097C5.625 3.73919 5.79997 3.3165 6.10509 3.01137C6.15783 2.95864 6.1875 2.88723 6.1875 2.81253V2.25003H6.75V2.81253C6.75 2.88723 6.77967 2.95864 6.83241 3.01137C6.92421 3.10317 6.99789 3.20437 7.06193 3.30941C6.89881 3.67852 6.79652 4.07933 6.76426 4.50003H6.46875C6.31344 4.50003 6.1875 4.62583 6.1875 4.78128V5.06253C6.1875 5.26837 6.2471 5.45889 6.34396 5.62503H5.625V4.17097ZM0.84375 7.3125C0.688697 7.3125 0.5625 7.18644 0.5625 7.03125C0.5625 6.87606 0.688697 6.75 0.84375 6.75H2.99444L2.92953 7.3125H0.84375ZM7.13641 13.3354C7.14018 13.3339 7.14344 13.3319 7.1471 13.3302C7.2488 13.2824 7.33902 13.23 7.42427 13.1795C7.65236 13.0443 7.83267 12.9375 8.23025 12.9375C8.62754 12.9375 8.80757 13.0443 9.03541 13.1795C9.28893 13.3297 9.57609 13.5 10.1274 13.5C10.6788 13.5 10.9664 13.3297 11.2199 13.1795C11.448 13.0443 11.6282 12.9375 12.0256 12.9375C12.423 12.9375 12.6031 13.0443 12.8312 13.1795C13.0846 13.3297 13.3719 13.5 13.9234 13.5C14.4749 13.5 14.7622 13.3297 15.0155 13.1795C15.2436 13.0443 15.4237 12.9375 15.8211 12.9375C16.0329 12.9375 16.1824 12.9685 16.3125 13.0182V14.625H4.5V12.9399C4.84931 12.9519 5.0238 13.0526 5.23814 13.1795C5.4918 13.3297 5.77949 13.5 6.33156 13.5C6.69113 13.5 6.93759 13.4274 7.13641 13.3354ZM3.09375 17.4375C2.62848 17.4375 2.25 17.059 2.25 16.5938C2.25 16.1285 2.62848 15.75 3.09375 15.75C3.55902 15.75 3.9375 16.1285 3.9375 16.5938C3.9375 17.059 3.55902 17.4375 3.09375 17.4375ZM13.7812 17.4375C13.316 17.4375 12.9375 17.059 12.9375 16.5938C12.9375 16.1285 13.316 15.75 13.7812 15.75C14.2465 15.75 14.625 16.1285 14.625 16.5938C14.625 17.059 14.2465 17.4375 13.7812 17.4375ZM16.3125 15.75H14.899C14.6421 15.4105 14.2388 15.1875 13.7812 15.1875C13.3237 15.1875 12.9204 15.4105 12.6635 15.75H4.5V15.1875H16.3125V15.75ZM17.2172 12.695C17.126 12.754 17.0162 12.7568 16.9133 12.6955C16.8474 12.6565 16.7789 12.6162 16.7044 12.5778L16.7024 12.5768C16.4906 12.4678 16.228 12.375 15.8212 12.375C15.2695 12.375 14.9822 12.5453 14.7288 12.6955C14.5007 12.8307 14.3207 12.9375 13.9234 12.9375C13.5261 12.9375 13.3461 12.8307 13.118 12.6955C12.8646 12.5453 12.5773 12.375 12.0256 12.375C11.474 12.375 11.1867 12.5453 10.9332 12.6955C10.7051 12.8307 10.5249 12.9375 10.1275 12.9375C9.73032 12.9375 9.55029 12.8307 9.32245 12.6955C9.22458 12.6375 9.12119 12.5768 9 12.5238V11.25C9 11.0946 8.87406 10.9688 8.71875 10.9688C8.56344 10.9688 8.4375 11.0946 8.4375 11.25V12.3842C8.37256 12.3785 8.30413 12.375 8.23028 12.375C7.7996 12.375 7.53064 12.4789 7.3125 12.5959V9.00003C7.3125 8.84458 7.18656 8.71878 7.03125 8.71878C6.87594 8.71878 6.75 8.84458 6.75 9.00003V12.8818C6.63694 12.9162 6.50568 12.9375 6.33156 12.9375C5.93345 12.9375 5.753 12.8307 5.52462 12.6955C5.27096 12.5453 4.98341 12.375 4.43135 12.375C3.87928 12.375 3.59145 12.5453 3.32682 12.7022C3.23359 12.7571 3.1237 12.7546 3.03266 12.6958C2.94067 12.6359 2.89313 12.5354 2.90576 12.4267L3.56811 6.68548C3.57232 6.64895 3.58026 6.61371 3.591 6.57976L3.59235 6.57647C3.66621 6.34877 3.87928 6.1875 4.12703 6.1875H16.123C16.4088 6.1875 16.6491 6.40173 16.6818 6.68545L17.3441 12.4261C17.3566 12.5348 17.3092 12.6354 17.2172 12.695Z"/>
</mask>
<path d="M17.9031 12.3618L17.2406 6.62119C17.1751 6.0532 16.6945 5.625 16.123 5.625H15.031C15.1279 5.45887 15.1875 5.26835 15.1875 5.0625V4.78125C15.1875 4.6258 15.0616 4.5 14.9062 4.5H14.6107C14.4881 2.90062 13.3339 1.58858 11.8125 1.22721V1.125C11.8125 0.825075 11.6954 0.542728 11.4825 0.329878C11.2698 0.117028 10.9874 0 10.6875 0C10.0672 0 9.5625 0.504534 9.5625 1.125V1.22718C8.64886 1.44416 7.86648 2.00213 7.36096 2.76196C7.34411 2.74182 7.33019 2.72008 7.3125 2.70042V0.84375C7.3125 0.688303 7.18656 0.5625 7.03125 0.5625H5.90625C5.75094 0.5625 5.625 0.688303 5.625 0.84375V2.7007C5.26615 3.10199 5.0625 3.63097 5.0625 4.17094V5.62497H4.12701C3.71453 5.62497 3.35205 5.84986 3.15613 6.18747H0.84375C0.378478 6.18747 0 6.56595 0 7.03122C0 7.49649 0.378478 7.87497 0.84375 7.87497H2.86462L2.34681 12.3623C2.30988 12.6831 2.45528 12.9916 2.72638 13.1676C2.99649 13.3431 3.33652 13.3503 3.62438 13.1795C3.73002 13.1169 3.8261 13.0611 3.9375 13.0185V15.4759C3.70173 15.2974 3.41153 15.1875 3.09375 15.1875C2.3184 15.1875 1.6875 15.8184 1.6875 16.5937C1.6875 17.3691 2.3184 18 3.09375 18C3.8691 18 4.5 17.3691 4.5 16.5937V16.3125H12.4034C12.3849 16.4034 12.375 16.4974 12.375 16.5937C12.375 17.3691 13.0059 18 13.7812 18C14.5566 18 15.1875 17.3691 15.1875 16.5937C15.1875 16.4974 15.1776 16.4034 15.1591 16.3125H16.5938C16.7491 16.3125 16.875 16.1867 16.875 16.0312V13.2804C17.0939 13.3318 17.3268 13.2944 17.5232 13.1671C17.7944 12.9913 17.94 12.6826 17.9031 12.3618ZM7.3125 5.625C7.00228 5.625 6.75 5.37258 6.75 5.0625H14.625C14.625 5.37258 14.3727 5.625 14.0625 5.625H7.3125ZM10.125 1.125C10.125 0.814922 10.3773 0.5625 10.6875 0.5625C10.8372 0.5625 10.9784 0.621 11.0848 0.727566C11.1914 0.834131 11.25 0.975319 11.25 1.125V1.13926C11.1569 1.13212 11.0637 1.125 10.9688 1.125H10.4061C10.3112 1.125 10.2181 1.13212 10.125 1.13926V1.125ZM10.4061 1.6875H10.9688C12.5799 1.6875 13.9073 2.92539 14.0499 4.5H7.32513C7.46767 2.92539 8.79497 1.6875 10.4061 1.6875ZM6.1875 1.125H6.75V1.6875H6.1875V1.125ZM5.625 4.17097C5.625 3.73919 5.79997 3.3165 6.10509 3.01137C6.15783 2.95864 6.1875 2.88723 6.1875 2.81253V2.25003H6.75V2.81253C6.75 2.88723 6.77967 2.95864 6.83241 3.01137C6.92421 3.10317 6.99789 3.20437 7.06193 3.30941C6.89881 3.67852 6.79652 4.07933 6.76426 4.50003H6.46875C6.31344 4.50003 6.1875 4.62583 6.1875 4.78128V5.06253C6.1875 5.26837 6.2471 5.45889 6.34396 5.62503H5.625V4.17097ZM0.84375 7.3125C0.688697 7.3125 0.5625 7.18644 0.5625 7.03125C0.5625 6.87606 0.688697 6.75 0.84375 6.75H2.99444L2.92953 7.3125H0.84375ZM7.13641 13.3354C7.14018 13.3339 7.14344 13.3319 7.1471 13.3302C7.2488 13.2824 7.33902 13.23 7.42427 13.1795C7.65236 13.0443 7.83267 12.9375 8.23025 12.9375C8.62754 12.9375 8.80757 13.0443 9.03541 13.1795C9.28893 13.3297 9.57609 13.5 10.1274 13.5C10.6788 13.5 10.9664 13.3297 11.2199 13.1795C11.448 13.0443 11.6282 12.9375 12.0256 12.9375C12.423 12.9375 12.6031 13.0443 12.8312 13.1795C13.0846 13.3297 13.3719 13.5 13.9234 13.5C14.4749 13.5 14.7622 13.3297 15.0155 13.1795C15.2436 13.0443 15.4237 12.9375 15.8211 12.9375C16.0329 12.9375 16.1824 12.9685 16.3125 13.0182V14.625H4.5V12.9399C4.84931 12.9519 5.0238 13.0526 5.23814 13.1795C5.4918 13.3297 5.77949 13.5 6.33156 13.5C6.69113 13.5 6.93759 13.4274 7.13641 13.3354ZM3.09375 17.4375C2.62848 17.4375 2.25 17.059 2.25 16.5938C2.25 16.1285 2.62848 15.75 3.09375 15.75C3.55902 15.75 3.9375 16.1285 3.9375 16.5938C3.9375 17.059 3.55902 17.4375 3.09375 17.4375ZM13.7812 17.4375C13.316 17.4375 12.9375 17.059 12.9375 16.5938C12.9375 16.1285 13.316 15.75 13.7812 15.75C14.2465 15.75 14.625 16.1285 14.625 16.5938C14.625 17.059 14.2465 17.4375 13.7812 17.4375ZM16.3125 15.75H14.899C14.6421 15.4105 14.2388 15.1875 13.7812 15.1875C13.3237 15.1875 12.9204 15.4105 12.6635 15.75H4.5V15.1875H16.3125V15.75ZM17.2172 12.695C17.126 12.754 17.0162 12.7568 16.9133 12.6955C16.8474 12.6565 16.7789 12.6162 16.7044 12.5778L16.7024 12.5768C16.4906 12.4678 16.228 12.375 15.8212 12.375C15.2695 12.375 14.9822 12.5453 14.7288 12.6955C14.5007 12.8307 14.3207 12.9375 13.9234 12.9375C13.5261 12.9375 13.3461 12.8307 13.118 12.6955C12.8646 12.5453 12.5773 12.375 12.0256 12.375C11.474 12.375 11.1867 12.5453 10.9332 12.6955C10.7051 12.8307 10.5249 12.9375 10.1275 12.9375C9.73032 12.9375 9.55029 12.8307 9.32245 12.6955C9.22458 12.6375 9.12119 12.5768 9 12.5238V11.25C9 11.0946 8.87406 10.9688 8.71875 10.9688C8.56344 10.9688 8.4375 11.0946 8.4375 11.25V12.3842C8.37256 12.3785 8.30413 12.375 8.23028 12.375C7.7996 12.375 7.53064 12.4789 7.3125 12.5959V9.00003C7.3125 8.84458 7.18656 8.71878 7.03125 8.71878C6.87594 8.71878 6.75 8.84458 6.75 9.00003V12.8818C6.63694 12.9162 6.50568 12.9375 6.33156 12.9375C5.93345 12.9375 5.753 12.8307 5.52462 12.6955C5.27096 12.5453 4.98341 12.375 4.43135 12.375C3.87928 12.375 3.59145 12.5453 3.32682 12.7022C3.23359 12.7571 3.1237 12.7546 3.03266 12.6958C2.94067 12.6359 2.89313 12.5354 2.90576 12.4267L3.56811 6.68548C3.57232 6.64895 3.58026 6.61371 3.591 6.57976L3.59235 6.57647C3.66621 6.34877 3.87928 6.1875 4.12703 6.1875H16.123C16.4088 6.1875 16.6491 6.40173 16.6818 6.68545L17.3441 12.4261C17.3566 12.5348 17.3092 12.6354 17.2172 12.695Z" fill="#222222"/>
<path d="M17.9031 12.3618L17.2406 6.62119C17.1751 6.0532 16.6945 5.625 16.123 5.625H15.031C15.1279 5.45887 15.1875 5.26835 15.1875 5.0625V4.78125C15.1875 4.6258 15.0616 4.5 14.9062 4.5H14.6107C14.4881 2.90062 13.3339 1.58858 11.8125 1.22721V1.125C11.8125 0.825075 11.6954 0.542728 11.4825 0.329878C11.2698 0.117028 10.9874 0 10.6875 0C10.0672 0 9.5625 0.504534 9.5625 1.125V1.22718C8.64886 1.44416 7.86648 2.00213 7.36096 2.76196C7.34411 2.74182 7.33019 2.72008 7.3125 2.70042V0.84375C7.3125 0.688303 7.18656 0.5625 7.03125 0.5625H5.90625C5.75094 0.5625 5.625 0.688303 5.625 0.84375V2.7007C5.26615 3.10199 5.0625 3.63097 5.0625 4.17094V5.62497H4.12701C3.71453 5.62497 3.35205 5.84986 3.15613 6.18747H0.84375C0.378478 6.18747 0 6.56595 0 7.03122C0 7.49649 0.378478 7.87497 0.84375 7.87497H2.86462L2.34681 12.3623C2.30988 12.6831 2.45528 12.9916 2.72638 13.1676C2.99649 13.3431 3.33652 13.3503 3.62438 13.1795C3.73002 13.1169 3.8261 13.0611 3.9375 13.0185V15.4759C3.70173 15.2974 3.41153 15.1875 3.09375 15.1875C2.3184 15.1875 1.6875 15.8184 1.6875 16.5937C1.6875 17.3691 2.3184 18 3.09375 18C3.8691 18 4.5 17.3691 4.5 16.5937V16.3125H12.4034C12.3849 16.4034 12.375 16.4974 12.375 16.5937C12.375 17.3691 13.0059 18 13.7812 18C14.5566 18 15.1875 17.3691 15.1875 16.5937C15.1875 16.4974 15.1776 16.4034 15.1591 16.3125H16.5938C16.7491 16.3125 16.875 16.1867 16.875 16.0312V13.2804C17.0939 13.3318 17.3268 13.2944 17.5232 13.1671C17.7944 12.9913 17.94 12.6826 17.9031 12.3618ZM7.3125 5.625C7.00228 5.625 6.75 5.37258 6.75 5.0625H14.625C14.625 5.37258 14.3727 5.625 14.0625 5.625H7.3125ZM10.125 1.125C10.125 0.814922 10.3773 0.5625 10.6875 0.5625C10.8372 0.5625 10.9784 0.621 11.0848 0.727566C11.1914 0.834131 11.25 0.975319 11.25 1.125V1.13926C11.1569 1.13212 11.0637 1.125 10.9688 1.125H10.4061C10.3112 1.125 10.2181 1.13212 10.125 1.13926V1.125ZM10.4061 1.6875H10.9688C12.5799 1.6875 13.9073 2.92539 14.0499 4.5H7.32513C7.46767 2.92539 8.79497 1.6875 10.4061 1.6875ZM6.1875 1.125H6.75V1.6875H6.1875V1.125ZM5.625 4.17097C5.625 3.73919 5.79997 3.3165 6.10509 3.01137C6.15783 2.95864 6.1875 2.88723 6.1875 2.81253V2.25003H6.75V2.81253C6.75 2.88723 6.77967 2.95864 6.83241 3.01137C6.92421 3.10317 6.99789 3.20437 7.06193 3.30941C6.89881 3.67852 6.79652 4.07933 6.76426 4.50003H6.46875C6.31344 4.50003 6.1875 4.62583 6.1875 4.78128V5.06253C6.1875 5.26837 6.2471 5.45889 6.34396 5.62503H5.625V4.17097ZM0.84375 7.3125C0.688697 7.3125 0.5625 7.18644 0.5625 7.03125C0.5625 6.87606 0.688697 6.75 0.84375 6.75H2.99444L2.92953 7.3125H0.84375ZM7.13641 13.3354C7.14018 13.3339 7.14344 13.3319 7.1471 13.3302C7.2488 13.2824 7.33902 13.23 7.42427 13.1795C7.65236 13.0443 7.83267 12.9375 8.23025 12.9375C8.62754 12.9375 8.80757 13.0443 9.03541 13.1795C9.28893 13.3297 9.57609 13.5 10.1274 13.5C10.6788 13.5 10.9664 13.3297 11.2199 13.1795C11.448 13.0443 11.6282 12.9375 12.0256 12.9375C12.423 12.9375 12.6031 13.0443 12.8312 13.1795C13.0846 13.3297 13.3719 13.5 13.9234 13.5C14.4749 13.5 14.7622 13.3297 15.0155 13.1795C15.2436 13.0443 15.4237 12.9375 15.8211 12.9375C16.0329 12.9375 16.1824 12.9685 16.3125 13.0182V14.625H4.5V12.9399C4.84931 12.9519 5.0238 13.0526 5.23814 13.1795C5.4918 13.3297 5.77949 13.5 6.33156 13.5C6.69113 13.5 6.93759 13.4274 7.13641 13.3354ZM3.09375 17.4375C2.62848 17.4375 2.25 17.059 2.25 16.5938C2.25 16.1285 2.62848 15.75 3.09375 15.75C3.55902 15.75 3.9375 16.1285 3.9375 16.5938C3.9375 17.059 3.55902 17.4375 3.09375 17.4375ZM13.7812 17.4375C13.316 17.4375 12.9375 17.059 12.9375 16.5938C12.9375 16.1285 13.316 15.75 13.7812 15.75C14.2465 15.75 14.625 16.1285 14.625 16.5938C14.625 17.059 14.2465 17.4375 13.7812 17.4375ZM16.3125 15.75H14.899C14.6421 15.4105 14.2388 15.1875 13.7812 15.1875C13.3237 15.1875 12.9204 15.4105 12.6635 15.75H4.5V15.1875H16.3125V15.75ZM17.2172 12.695C17.126 12.754 17.0162 12.7568 16.9133 12.6955C16.8474 12.6565 16.7789 12.6162 16.7044 12.5778L16.7024 12.5768C16.4906 12.4678 16.228 12.375 15.8212 12.375C15.2695 12.375 14.9822 12.5453 14.7288 12.6955C14.5007 12.8307 14.3207 12.9375 13.9234 12.9375C13.5261 12.9375 13.3461 12.8307 13.118 12.6955C12.8646 12.5453 12.5773 12.375 12.0256 12.375C11.474 12.375 11.1867 12.5453 10.9332 12.6955C10.7051 12.8307 10.5249 12.9375 10.1275 12.9375C9.73032 12.9375 9.55029 12.8307 9.32245 12.6955C9.22458 12.6375 9.12119 12.5768 9 12.5238V11.25C9 11.0946 8.87406 10.9688 8.71875 10.9688C8.56344 10.9688 8.4375 11.0946 8.4375 11.25V12.3842C8.37256 12.3785 8.30413 12.375 8.23028 12.375C7.7996 12.375 7.53064 12.4789 7.3125 12.5959V9.00003C7.3125 8.84458 7.18656 8.71878 7.03125 8.71878C6.87594 8.71878 6.75 8.84458 6.75 9.00003V12.8818C6.63694 12.9162 6.50568 12.9375 6.33156 12.9375C5.93345 12.9375 5.753 12.8307 5.52462 12.6955C5.27096 12.5453 4.98341 12.375 4.43135 12.375C3.87928 12.375 3.59145 12.5453 3.32682 12.7022C3.23359 12.7571 3.1237 12.7546 3.03266 12.6958C2.94067 12.6359 2.89313 12.5354 2.90576 12.4267L3.56811 6.68548C3.57232 6.64895 3.58026 6.61371 3.591 6.57976L3.59235 6.57647C3.66621 6.34877 3.87928 6.1875 4.12703 6.1875H16.123C16.4088 6.1875 16.6491 6.40173 16.6818 6.68545L17.3441 12.4261C17.3566 12.5348 17.3092 12.6354 17.2172 12.695Z" stroke="#222222" stroke-width="0.2" mask="url(#path-3-outside-1_102_4364)"/>
<path d="M8.71875 7.3623C8.84646 7.3623 8.9502 7.46593 8.9502 7.59375V9.5625C8.9502 9.69032 8.84646 9.79395 8.71875 9.79395C8.59104 9.79395 8.4873 9.69032 8.4873 9.5625V7.59375C8.4873 7.46593 8.59104 7.3623 8.71875 7.3623Z" fill="#222222" stroke="#222222" stroke-width="0.1"/>
<path d="M13.2188 8.71875C13.0634 8.71875 12.9375 8.84455 12.9375 9V11.5312C12.9375 11.6867 13.0634 11.8125 13.2188 11.8125C13.3741 11.8125 13.5 11.6867 13.5 11.5312V9C13.5 8.84455 13.3741 8.71875 13.2188 8.71875Z" fill="#222222"/>
</g>
<defs>
<clipPath id="clip0_102_4364">
<rect width="18" height="18" fill="white"/>
</clipPath>
</defs>
</svg>
