<svg width="18" height="18" viewBox="0 0 18 18" fill="none" xmlns="http://www.w3.org/2000/svg">
<g clip-path="url(#clip0_102_4337)">
<mask id="path-1-outside-1_102_4337" maskUnits="userSpaceOnUse" x="-1" y="0.40625" width="20" height="17" fill="black">
<rect fill="white" x="-1" y="0.40625" width="20" height="17"/>
<path d="M17.9468 14.4819C17.8964 14.4143 17.8171 14.3745 17.7327 14.3745H16.4206C16.9608 13.9357 17.3069 13.2665 17.3069 12.5179V9.29206C17.3069 7.97356 16.2341 6.90075 14.9156 6.90075H14.1404C14.4128 6.73911 14.667 6.54273 14.8961 6.31353C15.7025 5.50713 16.1057 4.39202 16.002 3.25411C15.9903 3.12557 15.8884 3.02381 15.76 3.01214C14.892 2.93318 14.0442 3.14411 13.3283 3.60993C13.1508 2.77854 12.6999 2.0242 12.0321 1.46815C11.9331 1.38562 11.7891 1.38562 11.69 1.46815C11.0222 2.0242 10.5715 2.77868 10.3937 3.60993C9.67758 3.14411 8.82957 2.93304 7.96207 3.01214C7.83366 3.02381 7.73176 3.12557 7.72009 3.25411C7.61655 4.39189 8.01961 5.507 8.826 6.31339C9.0552 6.54259 9.30926 6.73911 9.58159 6.90075H8.91664C8.17149 6.90075 7.49336 7.24297 7.05061 7.79517V6.5875C7.05061 6.43987 6.931 6.32026 6.78323 6.32026H5.88373V5.09501C5.88373 4.66366 5.53285 4.31265 5.10137 4.31265H4.66741V3.03425C4.66741 2.60427 4.31763 2.2545 3.88765 2.2545H2.85439C2.42441 2.2545 2.0745 2.60427 2.0745 3.03425V4.31265H1.64081C1.20919 4.31265 0.858036 4.66366 0.858036 5.09515V6.39112C0.858036 6.53875 0.977787 6.65836 1.12542 6.65836C1.27304 6.65836 1.39266 6.53875 1.39266 6.39112V5.09515C1.39266 4.9585 1.50403 4.84741 1.64081 4.84741H5.1015C5.23801 4.84741 5.34911 4.9585 5.34911 5.09515V6.32026H4.42406C4.27629 6.32026 4.15668 6.43987 4.15668 6.5875V8.56971C3.00421 9.12411 2.26923 10.2845 2.26923 11.5746C2.26923 12.7468 2.87732 13.7797 3.79468 14.3745H1.63944C1.50335 14.3736 1.3928 14.263 1.3928 14.1269V7.4605C1.3928 7.31287 1.27304 7.19312 1.12542 7.19312C0.977787 7.19312 0.858173 7.31287 0.858173 7.4605V14.1269C0.858173 14.2134 0.872456 14.2966 0.898548 14.3745H0.267384C0.183064 14.3745 0.103551 14.4143 0.0531509 14.4819C0.00261382 14.5494 -0.0129044 14.6369 0.0109909 14.7178C0.174275 15.2682 0.503727 15.7408 0.96378 16.0842C1.42383 16.4277 1.97054 16.6092 2.54457 16.6092H12.7783C12.926 16.6092 13.0456 16.4895 13.0456 16.3418C13.0456 16.1942 12.926 16.0745 12.7783 16.0745H2.54471C1.74285 16.0745 1.01253 15.6099 0.659733 14.9091H14.9156H14.9183H17.3403C16.9876 15.6099 16.2573 16.0745 15.4554 16.0745H13.8477C13.7001 16.0745 13.5803 16.1942 13.5803 16.3418C13.5803 16.4895 13.7001 16.6092 13.8477 16.6092H15.4554C16.0295 16.6092 16.5762 16.4277 17.0362 16.0842C17.4963 15.7408 17.8257 15.2682 17.989 14.7178C18.0129 14.6369 17.9974 14.5494 17.9468 14.4819ZM13.4078 4.20841C14.0043 3.75028 14.7295 3.51422 15.4825 3.53152C15.5025 4.4302 15.1577 5.29578 14.518 5.93546C13.9728 6.4808 13.2632 6.81162 12.5092 6.88496C13.0897 6.19872 13.4133 5.32778 13.4133 4.41331C13.4133 4.34478 13.4114 4.27653 13.4078 4.20841ZM11.8611 2.03161C12.5105 2.65275 12.8787 3.50859 12.8787 4.41331C12.8787 5.31817 12.5105 6.174 11.8611 6.79501C11.2117 6.174 10.8435 5.31817 10.8435 4.41331C10.8435 3.50859 11.2117 2.65275 11.8611 2.03161ZM8.23961 3.53152C8.99354 3.51367 9.71795 3.75028 10.3144 4.20855C10.3108 4.27653 10.3089 4.34478 10.3089 4.41345C10.3089 5.32778 10.6326 6.19886 11.2132 6.88509C10.4591 6.81176 9.74968 6.48107 9.20407 5.93546C8.56439 5.29578 8.2197 4.4302 8.23961 3.53152ZM4.13278 4.31265H2.60912V3.03425C2.60912 2.89912 2.71912 2.78912 2.85439 2.78912H3.88765C4.02292 2.78912 4.13278 2.89912 4.13278 3.03425V4.31265ZM4.6913 6.85488H6.51599V7.5852H4.6913V6.85488ZM2.80385 11.5746C2.80385 10.4407 3.4802 9.42595 4.52692 8.98939C4.62648 8.94791 4.6913 8.85055 4.6913 8.74274V8.11982H6.51599V8.74274C6.51599 8.85055 6.58081 8.94791 6.68037 8.98939C7.7271 9.42595 8.40344 10.4407 8.40344 11.5746C8.40344 13.1185 7.14757 14.3745 5.60371 14.3745C4.05972 14.3745 2.80385 13.1185 2.80385 11.5746ZM14.9183 14.3745H7.41275C8.02524 13.9773 8.49985 13.3847 8.74759 12.6857H13.7208C14.4724 12.6857 15.0838 12.0743 15.0838 11.3227V10.9916C15.0838 10.24 14.4724 9.62865 13.7208 9.62865H9.11068C8.96292 9.62865 8.84331 9.74827 8.84331 9.89589C8.84331 10.0435 8.96292 10.1633 9.11068 10.1633H13.7208C14.1776 10.1633 14.5492 10.5349 14.5492 10.9916V11.3227C14.5492 11.7795 14.1776 12.1511 13.7208 12.1511H8.88821C8.9209 11.9638 8.9382 11.7713 8.9382 11.5746C8.9382 10.3336 8.2576 9.21255 7.17984 8.63576C7.449 7.91959 8.13538 7.43551 8.91678 7.43551H11.5329H11.5337H14.9154C15.9392 7.43551 16.7721 8.26841 16.7721 9.29206V12.5179C16.7723 13.5407 15.9407 14.373 14.9183 14.3745Z"/>
</mask>
<path d="M17.9468 14.4819C17.8964 14.4143 17.8171 14.3745 17.7327 14.3745H16.4206C16.9608 13.9357 17.3069 13.2665 17.3069 12.5179V9.29206C17.3069 7.97356 16.2341 6.90075 14.9156 6.90075H14.1404C14.4128 6.73911 14.667 6.54273 14.8961 6.31353C15.7025 5.50713 16.1057 4.39202 16.002 3.25411C15.9903 3.12557 15.8884 3.02381 15.76 3.01214C14.892 2.93318 14.0442 3.14411 13.3283 3.60993C13.1508 2.77854 12.6999 2.0242 12.0321 1.46815C11.9331 1.38562 11.7891 1.38562 11.69 1.46815C11.0222 2.0242 10.5715 2.77868 10.3937 3.60993C9.67758 3.14411 8.82957 2.93304 7.96207 3.01214C7.83366 3.02381 7.73176 3.12557 7.72009 3.25411C7.61655 4.39189 8.01961 5.507 8.826 6.31339C9.0552 6.54259 9.30926 6.73911 9.58159 6.90075H8.91664C8.17149 6.90075 7.49336 7.24297 7.05061 7.79517V6.5875C7.05061 6.43987 6.931 6.32026 6.78323 6.32026H5.88373V5.09501C5.88373 4.66366 5.53285 4.31265 5.10137 4.31265H4.66741V3.03425C4.66741 2.60427 4.31763 2.2545 3.88765 2.2545H2.85439C2.42441 2.2545 2.0745 2.60427 2.0745 3.03425V4.31265H1.64081C1.20919 4.31265 0.858036 4.66366 0.858036 5.09515V6.39112C0.858036 6.53875 0.977787 6.65836 1.12542 6.65836C1.27304 6.65836 1.39266 6.53875 1.39266 6.39112V5.09515C1.39266 4.9585 1.50403 4.84741 1.64081 4.84741H5.1015C5.23801 4.84741 5.34911 4.9585 5.34911 5.09515V6.32026H4.42406C4.27629 6.32026 4.15668 6.43987 4.15668 6.5875V8.56971C3.00421 9.12411 2.26923 10.2845 2.26923 11.5746C2.26923 12.7468 2.87732 13.7797 3.79468 14.3745H1.63944C1.50335 14.3736 1.3928 14.263 1.3928 14.1269V7.4605C1.3928 7.31287 1.27304 7.19312 1.12542 7.19312C0.977787 7.19312 0.858173 7.31287 0.858173 7.4605V14.1269C0.858173 14.2134 0.872456 14.2966 0.898548 14.3745H0.267384C0.183064 14.3745 0.103551 14.4143 0.0531509 14.4819C0.00261382 14.5494 -0.0129044 14.6369 0.0109909 14.7178C0.174275 15.2682 0.503727 15.7408 0.96378 16.0842C1.42383 16.4277 1.97054 16.6092 2.54457 16.6092H12.7783C12.926 16.6092 13.0456 16.4895 13.0456 16.3418C13.0456 16.1942 12.926 16.0745 12.7783 16.0745H2.54471C1.74285 16.0745 1.01253 15.6099 0.659733 14.9091H14.9156H14.9183H17.3403C16.9876 15.6099 16.2573 16.0745 15.4554 16.0745H13.8477C13.7001 16.0745 13.5803 16.1942 13.5803 16.3418C13.5803 16.4895 13.7001 16.6092 13.8477 16.6092H15.4554C16.0295 16.6092 16.5762 16.4277 17.0362 16.0842C17.4963 15.7408 17.8257 15.2682 17.989 14.7178C18.0129 14.6369 17.9974 14.5494 17.9468 14.4819ZM13.4078 4.20841C14.0043 3.75028 14.7295 3.51422 15.4825 3.53152C15.5025 4.4302 15.1577 5.29578 14.518 5.93546C13.9728 6.4808 13.2632 6.81162 12.5092 6.88496C13.0897 6.19872 13.4133 5.32778 13.4133 4.41331C13.4133 4.34478 13.4114 4.27653 13.4078 4.20841ZM11.8611 2.03161C12.5105 2.65275 12.8787 3.50859 12.8787 4.41331C12.8787 5.31817 12.5105 6.174 11.8611 6.79501C11.2117 6.174 10.8435 5.31817 10.8435 4.41331C10.8435 3.50859 11.2117 2.65275 11.8611 2.03161ZM8.23961 3.53152C8.99354 3.51367 9.71795 3.75028 10.3144 4.20855C10.3108 4.27653 10.3089 4.34478 10.3089 4.41345C10.3089 5.32778 10.6326 6.19886 11.2132 6.88509C10.4591 6.81176 9.74968 6.48107 9.20407 5.93546C8.56439 5.29578 8.2197 4.4302 8.23961 3.53152ZM4.13278 4.31265H2.60912V3.03425C2.60912 2.89912 2.71912 2.78912 2.85439 2.78912H3.88765C4.02292 2.78912 4.13278 2.89912 4.13278 3.03425V4.31265ZM4.6913 6.85488H6.51599V7.5852H4.6913V6.85488ZM2.80385 11.5746C2.80385 10.4407 3.4802 9.42595 4.52692 8.98939C4.62648 8.94791 4.6913 8.85055 4.6913 8.74274V8.11982H6.51599V8.74274C6.51599 8.85055 6.58081 8.94791 6.68037 8.98939C7.7271 9.42595 8.40344 10.4407 8.40344 11.5746C8.40344 13.1185 7.14757 14.3745 5.60371 14.3745C4.05972 14.3745 2.80385 13.1185 2.80385 11.5746ZM14.9183 14.3745H7.41275C8.02524 13.9773 8.49985 13.3847 8.74759 12.6857H13.7208C14.4724 12.6857 15.0838 12.0743 15.0838 11.3227V10.9916C15.0838 10.24 14.4724 9.62865 13.7208 9.62865H9.11068C8.96292 9.62865 8.84331 9.74827 8.84331 9.89589C8.84331 10.0435 8.96292 10.1633 9.11068 10.1633H13.7208C14.1776 10.1633 14.5492 10.5349 14.5492 10.9916V11.3227C14.5492 11.7795 14.1776 12.1511 13.7208 12.1511H8.88821C8.9209 11.9638 8.9382 11.7713 8.9382 11.5746C8.9382 10.3336 8.2576 9.21255 7.17984 8.63576C7.449 7.91959 8.13538 7.43551 8.91678 7.43551H11.5329H11.5337H14.9154C15.9392 7.43551 16.7721 8.26841 16.7721 9.29206V12.5179C16.7723 13.5407 15.9407 14.373 14.9183 14.3745Z" fill="#222222"/>
<path d="M17.9468 14.4819C17.8964 14.4143 17.8171 14.3745 17.7327 14.3745H16.4206C16.9608 13.9357 17.3069 13.2665 17.3069 12.5179V9.29206C17.3069 7.97356 16.2341 6.90075 14.9156 6.90075H14.1404C14.4128 6.73911 14.667 6.54273 14.8961 6.31353C15.7025 5.50713 16.1057 4.39202 16.002 3.25411C15.9903 3.12557 15.8884 3.02381 15.76 3.01214C14.892 2.93318 14.0442 3.14411 13.3283 3.60993C13.1508 2.77854 12.6999 2.0242 12.0321 1.46815C11.9331 1.38562 11.7891 1.38562 11.69 1.46815C11.0222 2.0242 10.5715 2.77868 10.3937 3.60993C9.67758 3.14411 8.82957 2.93304 7.96207 3.01214C7.83366 3.02381 7.73176 3.12557 7.72009 3.25411C7.61655 4.39189 8.01961 5.507 8.826 6.31339C9.0552 6.54259 9.30926 6.73911 9.58159 6.90075H8.91664C8.17149 6.90075 7.49336 7.24297 7.05061 7.79517V6.5875C7.05061 6.43987 6.931 6.32026 6.78323 6.32026H5.88373V5.09501C5.88373 4.66366 5.53285 4.31265 5.10137 4.31265H4.66741V3.03425C4.66741 2.60427 4.31763 2.2545 3.88765 2.2545H2.85439C2.42441 2.2545 2.0745 2.60427 2.0745 3.03425V4.31265H1.64081C1.20919 4.31265 0.858036 4.66366 0.858036 5.09515V6.39112C0.858036 6.53875 0.977787 6.65836 1.12542 6.65836C1.27304 6.65836 1.39266 6.53875 1.39266 6.39112V5.09515C1.39266 4.9585 1.50403 4.84741 1.64081 4.84741H5.1015C5.23801 4.84741 5.34911 4.9585 5.34911 5.09515V6.32026H4.42406C4.27629 6.32026 4.15668 6.43987 4.15668 6.5875V8.56971C3.00421 9.12411 2.26923 10.2845 2.26923 11.5746C2.26923 12.7468 2.87732 13.7797 3.79468 14.3745H1.63944C1.50335 14.3736 1.3928 14.263 1.3928 14.1269V7.4605C1.3928 7.31287 1.27304 7.19312 1.12542 7.19312C0.977787 7.19312 0.858173 7.31287 0.858173 7.4605V14.1269C0.858173 14.2134 0.872456 14.2966 0.898548 14.3745H0.267384C0.183064 14.3745 0.103551 14.4143 0.0531509 14.4819C0.00261382 14.5494 -0.0129044 14.6369 0.0109909 14.7178C0.174275 15.2682 0.503727 15.7408 0.96378 16.0842C1.42383 16.4277 1.97054 16.6092 2.54457 16.6092H12.7783C12.926 16.6092 13.0456 16.4895 13.0456 16.3418C13.0456 16.1942 12.926 16.0745 12.7783 16.0745H2.54471C1.74285 16.0745 1.01253 15.6099 0.659733 14.9091H14.9156H14.9183H17.3403C16.9876 15.6099 16.2573 16.0745 15.4554 16.0745H13.8477C13.7001 16.0745 13.5803 16.1942 13.5803 16.3418C13.5803 16.4895 13.7001 16.6092 13.8477 16.6092H15.4554C16.0295 16.6092 16.5762 16.4277 17.0362 16.0842C17.4963 15.7408 17.8257 15.2682 17.989 14.7178C18.0129 14.6369 17.9974 14.5494 17.9468 14.4819ZM13.4078 4.20841C14.0043 3.75028 14.7295 3.51422 15.4825 3.53152C15.5025 4.4302 15.1577 5.29578 14.518 5.93546C13.9728 6.4808 13.2632 6.81162 12.5092 6.88496C13.0897 6.19872 13.4133 5.32778 13.4133 4.41331C13.4133 4.34478 13.4114 4.27653 13.4078 4.20841ZM11.8611 2.03161C12.5105 2.65275 12.8787 3.50859 12.8787 4.41331C12.8787 5.31817 12.5105 6.174 11.8611 6.79501C11.2117 6.174 10.8435 5.31817 10.8435 4.41331C10.8435 3.50859 11.2117 2.65275 11.8611 2.03161ZM8.23961 3.53152C8.99354 3.51367 9.71795 3.75028 10.3144 4.20855C10.3108 4.27653 10.3089 4.34478 10.3089 4.41345C10.3089 5.32778 10.6326 6.19886 11.2132 6.88509C10.4591 6.81176 9.74968 6.48107 9.20407 5.93546C8.56439 5.29578 8.2197 4.4302 8.23961 3.53152ZM4.13278 4.31265H2.60912V3.03425C2.60912 2.89912 2.71912 2.78912 2.85439 2.78912H3.88765C4.02292 2.78912 4.13278 2.89912 4.13278 3.03425V4.31265ZM4.6913 6.85488H6.51599V7.5852H4.6913V6.85488ZM2.80385 11.5746C2.80385 10.4407 3.4802 9.42595 4.52692 8.98939C4.62648 8.94791 4.6913 8.85055 4.6913 8.74274V8.11982H6.51599V8.74274C6.51599 8.85055 6.58081 8.94791 6.68037 8.98939C7.7271 9.42595 8.40344 10.4407 8.40344 11.5746C8.40344 13.1185 7.14757 14.3745 5.60371 14.3745C4.05972 14.3745 2.80385 13.1185 2.80385 11.5746ZM14.9183 14.3745H7.41275C8.02524 13.9773 8.49985 13.3847 8.74759 12.6857H13.7208C14.4724 12.6857 15.0838 12.0743 15.0838 11.3227V10.9916C15.0838 10.24 14.4724 9.62865 13.7208 9.62865H9.11068C8.96292 9.62865 8.84331 9.74827 8.84331 9.89589C8.84331 10.0435 8.96292 10.1633 9.11068 10.1633H13.7208C14.1776 10.1633 14.5492 10.5349 14.5492 10.9916V11.3227C14.5492 11.7795 14.1776 12.1511 13.7208 12.1511H8.88821C8.9209 11.9638 8.9382 11.7713 8.9382 11.5746C8.9382 10.3336 8.2576 9.21255 7.17984 8.63576C7.449 7.91959 8.13538 7.43551 8.91678 7.43551H11.5329H11.5337H14.9154C15.9392 7.43551 16.7721 8.26841 16.7721 9.29206V12.5179C16.7723 13.5407 15.9407 14.373 14.9183 14.3745Z" stroke="#222222" stroke-width="0.2" mask="url(#path-1-outside-1_102_4337)"/>
</g>
<defs>
<clipPath id="clip0_102_4337">
<rect width="18" height="18" fill="white"/>
</clipPath>
</defs>
</svg>
