<svg width="18" height="18" viewBox="0 0 18 18" fill="none" xmlns="http://www.w3.org/2000/svg">
<g clip-path="url(#clip0_102_4398)">
<path d="M17.1562 2.2002C17.3933 2.2002 17.6205 2.2943 17.7881 2.46191C17.9557 2.62952 18.0498 2.85671 18.0498 3.09375V5.34375C18.0498 5.4316 18.0152 5.516 17.9531 5.57812C17.891 5.64025 17.8066 5.6748 17.7188 5.6748C17.6309 5.6748 17.5465 5.64025 17.4844 5.57812C17.4223 5.516 17.3877 5.4316 17.3877 5.34375V3.09375C17.3877 3.03242 17.3627 2.97403 17.3193 2.93066C17.276 2.8873 17.2176 2.8623 17.1562 2.8623H0.84375C0.782419 2.8623 0.724032 2.8873 0.680664 2.93066C0.637296 2.97403 0.612305 3.03242 0.612305 3.09375V12.0938C0.612305 12.1551 0.637297 12.2135 0.680664 12.2568C0.724032 12.3002 0.782419 12.3252 0.84375 12.3252H12.0938C12.1816 12.3252 12.266 12.3598 12.3281 12.4219C12.3902 12.484 12.4248 12.5684 12.4248 12.6562C12.4248 12.7441 12.3902 12.8285 12.3281 12.8906C12.266 12.9527 12.1816 12.9873 12.0938 12.9873H10.1748V14.0127H10.6875C11.0736 14.0132 11.4438 14.1665 11.7168 14.4395C11.9898 14.7124 12.1431 15.0827 12.1436 15.4688L12.1377 15.5332C12.125 15.5971 12.0936 15.6564 12.0469 15.7031C11.9848 15.7652 11.9004 15.7998 11.8125 15.7998H6.1875C6.09965 15.7998 6.01525 15.7652 5.95312 15.7031C5.891 15.641 5.85645 15.5566 5.85645 15.4688L5.86328 15.3252C5.89664 14.9918 6.04424 14.6784 6.2832 14.4395C6.55619 14.1665 6.92644 14.0132 7.3125 14.0127H7.8252V12.9873H0.84375C0.606713 12.9873 0.379525 12.8932 0.211914 12.7256C0.0443034 12.558 -0.0498047 12.3308 -0.0498047 12.0938V3.09375C-0.0498047 2.85671 0.0443034 2.62952 0.211914 2.46191C0.379525 2.2943 0.606713 2.2002 0.84375 2.2002H17.1562ZM7.3125 14.6748C7.14839 14.675 6.9885 14.7265 6.85449 14.8213C6.74032 14.902 6.65103 15.0115 6.59277 15.1377H11.4072C11.349 15.0115 11.2597 14.902 11.1455 14.8213C11.045 14.7503 10.9301 14.7034 10.8096 14.6846L10.6875 14.6748H7.3125ZM8.4873 14.0127H9.5127V12.9873H8.4873V14.0127Z" fill="#222222" stroke="#222222" stroke-width="0.1"/>
<path d="M17.1562 6.1377C17.3933 6.1377 17.6205 6.2318 17.7881 6.39941C17.9557 6.56702 18.0498 6.79421 18.0498 7.03125V14.9062C18.0498 15.1433 17.9557 15.3705 17.7881 15.5381C17.6205 15.7057 17.3933 15.7998 17.1562 15.7998H13.7812C13.5442 15.7998 13.317 15.7057 13.1494 15.5381C12.9818 15.3705 12.8877 15.1433 12.8877 14.9062V7.03125C12.8877 6.79421 12.9818 6.56702 13.1494 6.39941C13.317 6.2318 13.5442 6.1377 13.7812 6.1377H17.1562ZM13.7812 6.7998C13.7199 6.7998 13.6615 6.8248 13.6182 6.86816C13.5748 6.91153 13.5498 6.96992 13.5498 7.03125V14.9062C13.5498 14.9676 13.5748 15.026 13.6182 15.0693C13.6615 15.1127 13.7199 15.1377 13.7812 15.1377H17.1562C17.2176 15.1377 17.276 15.1127 17.3193 15.0693C17.3627 15.026 17.3877 14.9676 17.3877 14.9062V7.03125C17.3877 6.96992 17.3627 6.91153 17.3193 6.86816C17.276 6.8248 17.2176 6.7998 17.1562 6.7998H13.7812Z" fill="#222222" stroke="#222222" stroke-width="0.1"/>
<path d="M15.1846 10.665C15.4671 10.6089 15.7603 10.6378 16.0264 10.748C16.2924 10.8583 16.5197 11.0457 16.6797 11.2852C16.8395 11.5246 16.9248 11.8059 16.9248 12.0938C16.9243 12.4798 16.771 12.8501 16.498 13.123C16.2251 13.396 15.8548 13.5493 15.4688 13.5498C15.1809 13.5498 14.8996 13.4645 14.6602 13.3047C14.4207 13.1447 14.2333 12.9174 14.123 12.6514C14.0128 12.3853 13.9839 12.0921 14.04 11.8096C14.0962 11.5271 14.2358 11.2681 14.4395 11.0645C14.6431 10.8608 14.9021 10.7212 15.1846 10.665ZM15.4688 11.2998C15.3118 11.2998 15.1579 11.3464 15.0273 11.4336C14.8969 11.5208 14.7954 11.6451 14.7354 11.79C14.6753 11.9351 14.6598 12.0951 14.6904 12.249C14.7211 12.4028 14.7963 12.5444 14.9072 12.6553C15.0181 12.7662 15.1597 12.8414 15.3135 12.8721C15.4674 12.9027 15.6274 12.8872 15.7725 12.8271C15.9174 12.7671 16.0417 12.6656 16.1289 12.5352C16.2161 12.4046 16.2627 12.2507 16.2627 12.0938C16.2627 11.8832 16.1791 11.6811 16.0303 11.5322C15.8814 11.3834 15.6793 11.2998 15.4688 11.2998Z" fill="#222222" stroke="#222222" stroke-width="0.1"/>
<path d="M14.3438 7.2627C14.5267 7.2627 14.6748 7.41081 14.6748 7.59375C14.6748 7.77669 14.5267 7.9248 14.3438 7.9248C14.1608 7.9248 14.0127 7.77669 14.0127 7.59375C14.0127 7.41081 14.1608 7.2627 14.3438 7.2627Z" fill="#222222" stroke="#222222" stroke-width="0.1"/>
<path d="M15.4688 7.2627C15.6517 7.2627 15.7998 7.41081 15.7998 7.59375C15.7998 7.77669 15.6517 7.9248 15.4688 7.9248C15.2858 7.9248 15.1377 7.77669 15.1377 7.59375C15.1377 7.41081 15.2858 7.2627 15.4688 7.2627Z" fill="#222222" stroke="#222222" stroke-width="0.1"/>
<path d="M16.5938 7.2627C16.7767 7.2627 16.9248 7.41081 16.9248 7.59375C16.9248 7.77669 16.7767 7.9248 16.5938 7.9248C16.4108 7.9248 16.2627 7.77669 16.2627 7.59375C16.2627 7.41081 16.4108 7.2627 16.5938 7.2627Z" fill="#222222" stroke="#222222" stroke-width="0.1"/>
<path d="M14.3438 8.3877C14.5267 8.3877 14.6748 8.53581 14.6748 8.71875C14.6748 8.90169 14.5267 9.0498 14.3438 9.0498C14.1608 9.0498 14.0127 8.90169 14.0127 8.71875C14.0127 8.53581 14.1608 8.3877 14.3438 8.3877Z" fill="#222222" stroke="#222222" stroke-width="0.1"/>
<path d="M15.4688 8.3877C15.6517 8.3877 15.7998 8.53581 15.7998 8.71875C15.7998 8.90169 15.6517 9.0498 15.4688 9.0498C15.2858 9.0498 15.1377 8.90169 15.1377 8.71875C15.1377 8.53581 15.2858 8.3877 15.4688 8.3877Z" fill="#222222" stroke="#222222" stroke-width="0.1"/>
<path d="M16.5938 8.3877C16.7767 8.3877 16.9248 8.53581 16.9248 8.71875C16.9248 8.90169 16.7767 9.0498 16.5938 9.0498C16.4108 9.0498 16.2627 8.90169 16.2627 8.71875C16.2627 8.53581 16.4108 8.3877 16.5938 8.3877Z" fill="#222222" stroke="#222222" stroke-width="0.1"/>
<path d="M14.3438 9.5127C14.5267 9.5127 14.6748 9.66081 14.6748 9.84375C14.6748 10.0267 14.5267 10.1748 14.3438 10.1748C14.1608 10.1748 14.0127 10.0267 14.0127 9.84375C14.0127 9.66081 14.1608 9.5127 14.3438 9.5127Z" fill="#222222" stroke="#222222" stroke-width="0.1"/>
<path d="M15.4688 9.5127C15.6517 9.5127 15.7998 9.66081 15.7998 9.84375C15.7998 10.0267 15.6517 10.1748 15.4688 10.1748C15.2858 10.1748 15.1377 10.0267 15.1377 9.84375C15.1377 9.66081 15.2858 9.5127 15.4688 9.5127Z" fill="#222222" stroke="#222222" stroke-width="0.1"/>
<path d="M16.5938 9.5127C16.7767 9.5127 16.9248 9.66081 16.9248 9.84375C16.9248 10.0267 16.7767 10.1748 16.5938 10.1748C16.4108 10.1748 16.2627 10.0267 16.2627 9.84375C16.2627 9.66081 16.4108 9.5127 16.5938 9.5127Z" fill="#222222" stroke="#222222" stroke-width="0.1"/>
<path d="M14.3438 14.0127C14.5267 14.0127 14.6748 14.1608 14.6748 14.3438C14.6748 14.5267 14.5267 14.6748 14.3438 14.6748C14.1608 14.6748 14.0127 14.5267 14.0127 14.3438C14.0127 14.1608 14.1608 14.0127 14.3438 14.0127Z" fill="#222222" stroke="#222222" stroke-width="0.1"/>
<path d="M15.4688 14.0127C15.6517 14.0127 15.7998 14.1608 15.7998 14.3438C15.7998 14.5267 15.6517 14.6748 15.4688 14.6748C15.2858 14.6748 15.1377 14.5267 15.1377 14.3438C15.1377 14.1608 15.2858 14.0127 15.4688 14.0127Z" fill="#222222" stroke="#222222" stroke-width="0.1"/>
<path d="M16.5938 14.0127C16.7767 14.0127 16.9248 14.1608 16.9248 14.3438C16.9248 14.5267 16.7767 14.6748 16.5938 14.6748C16.4108 14.6748 16.2627 14.5267 16.2627 14.3438C16.2627 14.1608 16.4108 14.0127 16.5938 14.0127Z" fill="#222222" stroke="#222222" stroke-width="0.1"/>
</g>
<defs>
<clipPath id="clip0_102_4398">
<rect width="18" height="18" fill="white"/>
</clipPath>
</defs>
</svg>
