<svg width="18" height="18" viewBox="0 0 18 18" fill="none" xmlns="http://www.w3.org/2000/svg">
<g clip-path="url(#clip0_102_4372)">
<path d="M17.7002 16.1504C17.8935 16.1505 18.0497 16.3069 18.0498 16.5C18.0498 16.6932 17.8936 16.8505 17.7002 16.8506C17.4716 16.8506 17.3049 16.8796 17.165 16.9258C17.0247 16.9721 16.9094 17.0359 16.7812 17.1064C16.492 17.2662 16.1573 17.4502 15.5234 17.4502C15.0483 17.4501 14.7417 17.3466 14.4961 17.2275L14.2666 17.1064C14.1384 17.0358 14.0232 16.9722 13.8828 16.9258C13.743 16.8796 13.5762 16.8506 13.3477 16.8506C13.1191 16.8506 12.9521 16.8796 12.8125 16.9258C12.6724 16.9721 12.5576 17.0359 12.4297 17.1064C12.1404 17.266 11.8064 17.4502 11.1729 17.4502C10.5394 17.4502 10.2055 17.2661 9.91602 17.1064C9.78791 17.0358 9.67257 16.9722 9.53223 16.9258C9.39248 16.8796 9.22578 16.8506 8.99707 16.8506C8.76872 16.8506 8.60244 16.8797 8.46289 16.9258C8.32265 16.9722 8.20721 17.0358 8.0791 17.1064C7.78984 17.266 7.45589 17.4502 6.82227 17.4502C6.18903 17.4502 5.85565 17.2662 5.56641 17.1064C5.43843 17.0358 5.32293 16.9722 5.18262 16.9258C5.04305 16.8797 4.87673 16.8506 4.64844 16.8506C4.41987 16.8506 4.25295 16.8796 4.11328 16.9258C3.97315 16.9721 3.85828 17.0359 3.73047 17.1064C3.44127 17.2661 3.10764 17.4501 2.47461 17.4502C1.84126 17.4502 1.50705 17.2662 1.21777 17.1064C1.08996 17.0358 0.975091 16.9721 0.834961 16.9258C0.695292 16.8796 0.528373 16.8506 0.299805 16.8506C0.106463 16.8505 -0.0498047 16.6932 -0.0498047 16.5C-0.0497052 16.3069 0.106539 16.1505 0.299805 16.1504C0.933116 16.1504 1.26738 16.3346 1.55664 16.4941C1.68437 16.5647 1.79948 16.6275 1.93945 16.6738C2.07899 16.72 2.24544 16.75 2.47363 16.75C2.70206 16.75 2.86915 16.72 3.00879 16.6738C3.14876 16.6275 3.26388 16.5647 3.3916 16.4941C3.68086 16.3346 4.01513 16.1504 4.64844 16.1504C5.28155 16.1504 5.61509 16.3346 5.9043 16.4941C6.03228 16.5648 6.14783 16.6274 6.28809 16.6738C6.4277 16.72 6.59391 16.75 6.82227 16.75C7.05081 16.75 7.21771 16.72 7.35742 16.6738C7.49737 16.6275 7.61244 16.5646 7.74023 16.4941C8.02952 16.3344 8.36377 16.1504 8.99707 16.1504C9.63067 16.1504 9.96436 16.3344 10.2539 16.4941C10.382 16.5648 10.4974 16.6275 10.6377 16.6738C10.7774 16.72 10.9441 16.75 11.1729 16.75C11.4012 16.75 11.5674 16.72 11.707 16.6738C11.8473 16.6275 11.9628 16.5648 12.0908 16.4941C12.3801 16.3344 12.7144 16.1504 13.3477 16.1504C13.981 16.1504 14.3153 16.3336 14.6045 16.4932C14.7327 16.5639 14.8479 16.6274 14.9883 16.6738C15.1281 16.72 15.2948 16.75 15.5234 16.75C15.752 16.75 15.9188 16.72 16.0586 16.6738C16.1991 16.6274 16.3151 16.5648 16.4434 16.4941C16.7326 16.3344 17.0664 16.1504 17.7002 16.1504Z" fill="#222222" stroke="#222222" stroke-width="0.1"/>
<path d="M17.7002 13.7505C17.8935 13.7506 18.0497 13.907 18.0498 14.1001C18.0498 14.2933 17.8936 14.4506 17.7002 14.4507C17.4716 14.4507 17.3049 14.4797 17.165 14.5259C17.0247 14.5722 16.9094 14.636 16.7812 14.7065C16.492 14.8663 16.1573 15.0503 15.5234 15.0503C15.0483 15.0502 14.7417 14.9467 14.4961 14.8276L14.2666 14.7065C14.1384 14.6359 14.0232 14.5723 13.8828 14.5259C13.743 14.4797 13.5762 14.4507 13.3477 14.4507C13.1191 14.4507 12.9521 14.4797 12.8125 14.5259C12.6724 14.5722 12.5576 14.636 12.4297 14.7065C12.1404 14.8661 11.8064 15.0503 11.1729 15.0503C10.5394 15.0503 10.2055 14.8662 9.91602 14.7065C9.78791 14.6359 9.67257 14.5723 9.53223 14.5259C9.39248 14.4797 9.22578 14.4507 8.99707 14.4507C8.76872 14.4507 8.60244 14.4798 8.46289 14.5259C8.32265 14.5723 8.20721 14.6359 8.0791 14.7065C7.78984 14.8661 7.45589 15.0503 6.82227 15.0503C6.18903 15.0503 5.85566 14.8663 5.56641 14.7065C5.43843 14.6359 5.32293 14.5723 5.18262 14.5259C5.04305 14.4798 4.87673 14.4507 4.64844 14.4507C4.41987 14.4507 4.25295 14.4797 4.11328 14.5259C3.97315 14.5722 3.85828 14.636 3.73047 14.7065C3.44127 14.8662 3.10764 15.0502 2.47461 15.0503C1.84126 15.0503 1.50705 14.8663 1.21777 14.7065C1.08996 14.6359 0.975091 14.5722 0.834961 14.5259C0.695292 14.4797 0.528373 14.4507 0.299805 14.4507C0.106467 14.4506 -0.0498047 14.2933 -0.0498047 14.1001C-0.0497052 13.907 0.106485 13.7506 0.299805 13.7505C0.933116 13.7505 1.26738 13.9347 1.55664 14.0942C1.68437 14.1648 1.79948 14.2276 1.93945 14.2739C2.07908 14.3201 2.24619 14.3501 2.47461 14.3501C2.70278 14.3501 2.86925 14.3201 3.00879 14.2739C3.14877 14.2276 3.26388 14.1648 3.3916 14.0942C3.68086 13.9347 4.01513 13.7505 4.64844 13.7505C5.28156 13.7505 5.61509 13.9347 5.9043 14.0942C6.03227 14.1649 6.14784 14.2275 6.28809 14.2739C6.4277 14.3201 6.59392 14.3501 6.82227 14.3501C7.05081 14.3501 7.21771 14.3201 7.35742 14.2739C7.49737 14.2276 7.61245 14.1647 7.74023 14.0942C8.02952 13.9345 8.36377 13.7505 8.99707 13.7505C9.63069 13.7505 9.96435 13.9345 10.2539 14.0942C10.382 14.1649 10.4974 14.2275 10.6377 14.2739C10.7774 14.3201 10.9441 14.3501 11.1729 14.3501C11.4012 14.3501 11.5674 14.3201 11.707 14.2739C11.8473 14.2276 11.9628 14.1648 12.0908 14.0942C12.3801 13.9345 12.7144 13.7505 13.3477 13.7505C13.981 13.7505 14.3153 13.9337 14.6045 14.0933C14.7327 14.1639 14.8479 14.2275 14.9883 14.2739C15.1281 14.3201 15.2948 14.3501 15.5234 14.3501C15.752 14.3501 15.9188 14.3201 16.0586 14.2739C16.1991 14.2275 16.3151 14.1649 16.4434 14.0942C16.7326 13.9345 17.0664 13.7505 17.7002 13.7505Z" fill="#222222" stroke="#222222" stroke-width="0.1"/>
<path d="M17.7002 11.3501C17.8935 11.3502 18.0497 11.5066 18.0498 11.6997C18.0498 11.8929 17.8936 12.0502 17.7002 12.0503C17.4716 12.0503 17.3049 12.0794 17.165 12.1255C17.0247 12.1718 16.9094 12.2356 16.7812 12.3062C16.492 12.4659 16.1573 12.6499 15.5234 12.6499C15.0483 12.6498 14.7417 12.5463 14.4961 12.4272L14.2666 12.3062C14.1384 12.2355 14.0232 12.1719 13.8828 12.1255C13.743 12.0793 13.5762 12.0503 13.3477 12.0503C13.1191 12.0503 12.9521 12.0793 12.8125 12.1255C12.6724 12.1718 12.5576 12.2356 12.4297 12.3062C12.1404 12.4657 11.8064 12.6499 11.1729 12.6499C10.5394 12.6499 10.2055 12.4659 9.91602 12.3062C9.78791 12.2355 9.67257 12.1719 9.53223 12.1255C9.39248 12.0793 9.22578 12.0503 8.99707 12.0503C8.76872 12.0503 8.60244 12.0794 8.46289 12.1255C8.32265 12.1719 8.20721 12.2355 8.0791 12.3062C7.78984 12.4657 7.45589 12.6499 6.82227 12.6499C6.18903 12.6499 5.85565 12.4659 5.56641 12.3062C5.43843 12.2355 5.32293 12.1719 5.18262 12.1255C5.04305 12.0794 4.87673 12.0503 4.64844 12.0503C4.41987 12.0503 4.25295 12.0793 4.11328 12.1255C3.97315 12.1718 3.85828 12.2356 3.73047 12.3062C3.44127 12.4658 3.10764 12.6498 2.47461 12.6499C1.84126 12.6499 1.50705 12.4659 1.21777 12.3062C1.08996 12.2356 0.975091 12.1718 0.834961 12.1255C0.695292 12.0793 0.528373 12.0503 0.299805 12.0503C0.106466 12.0502 -0.0498047 11.8929 -0.0498047 11.6997C-0.0497058 11.5066 0.106543 11.3502 0.299805 11.3501C0.933116 11.3501 1.26738 11.5343 1.55664 11.6938C1.68437 11.7644 1.79948 11.8272 1.93945 11.8735C2.07899 11.9197 2.24544 11.9497 2.47363 11.9497C2.70206 11.9497 2.86915 11.9197 3.00879 11.8735C3.14876 11.8272 3.26388 11.7644 3.3916 11.6938C3.68086 11.5343 4.01513 11.3501 4.64844 11.3501C5.28155 11.3501 5.61509 11.5343 5.9043 11.6938C6.03228 11.7645 6.14783 11.8272 6.28809 11.8735C6.4277 11.9197 6.59391 11.9497 6.82227 11.9497C7.05081 11.9497 7.21771 11.9197 7.35742 11.8735C7.49737 11.8272 7.61244 11.7643 7.74023 11.6938C8.02952 11.5341 8.36377 11.3501 8.99707 11.3501C9.63067 11.3501 9.96436 11.5341 10.2539 11.6938C10.382 11.7645 10.4974 11.8272 10.6377 11.8735C10.7774 11.9197 10.9441 11.9497 11.1729 11.9497C11.4012 11.9497 11.5674 11.9197 11.707 11.8735C11.8473 11.8272 11.9628 11.7645 12.0908 11.6938C12.3801 11.5341 12.7144 11.3501 13.3477 11.3501C13.981 11.3502 14.3153 11.5333 14.6045 11.6929C14.7327 11.7636 14.8479 11.8271 14.9883 11.8735C15.1281 11.9197 15.2948 11.9497 15.5234 11.9497C15.752 11.9497 15.9188 11.9197 16.0586 11.8735C16.1991 11.8271 16.3151 11.7645 16.4434 11.6938C16.7326 11.5341 17.0664 11.3501 17.7002 11.3501Z" fill="#222222" stroke="#222222" stroke-width="0.1"/>
<path d="M13.5962 6.61475C13.7531 6.50273 13.972 6.53959 14.0845 6.69678C14.197 6.85406 14.1606 7.07265 14.0034 7.18506C13.2264 7.7402 12.9059 8.87549 13.2759 9.76611C13.3474 9.93923 13.2699 10.1382 13.1001 10.2173C13.0523 10.2396 13.002 10.2495 12.9526 10.2495C12.826 10.2495 12.7043 10.1807 12.6421 10.061C12.3051 9.41148 11.4027 8.95342 10.3228 9.35986C10.1431 9.42709 9.94066 9.33703 9.87256 9.15576C9.8043 8.97478 9.89564 8.77259 10.0767 8.70459C10.9851 8.3629 11.816 8.48994 12.4292 8.86182C12.4658 7.98832 12.8862 7.12188 13.5962 6.61475Z" fill="#222222" stroke="#222222" stroke-width="0.1"/>
<path d="M16.27 6.33594C16.4153 6.209 16.6361 6.22426 16.7632 6.37012C16.8902 6.51568 16.8754 6.73614 16.73 6.86328C16.4263 7.12841 16.3025 7.601 16.437 7.9834C16.4903 8.13495 16.4337 8.30422 16.2993 8.39258C16.2406 8.43118 16.1735 8.4502 16.1069 8.4502C16.0216 8.45017 15.9362 8.41873 15.8696 8.35742C15.6097 8.11804 15.1821 8.072 14.8784 8.25098C14.7118 8.34915 14.4974 8.29462 14.3989 8.12793C14.3009 7.96152 14.3555 7.74674 14.522 7.64844C14.8751 7.44001 15.3027 7.39334 15.6919 7.49316C15.7327 7.05413 15.9344 6.62895 16.27 6.33594Z" fill="#222222" stroke="#222222" stroke-width="0.1"/>
<path d="M5.40039 2.3501C6.75118 2.3503 7.84961 3.44945 7.84961 4.80029C7.8494 6.15096 6.75106 7.24931 5.40039 7.24951C4.04955 7.24951 2.9504 6.15109 2.9502 4.80029C2.9502 3.44933 4.04942 2.3501 5.40039 2.3501ZM5.40039 3.05029C4.43544 3.05029 3.65039 3.83534 3.65039 4.80029C3.6506 5.76507 4.43556 6.55029 5.40039 6.55029C6.36504 6.55009 7.15019 5.76495 7.15039 4.80029C7.15039 3.83547 6.36517 3.0505 5.40039 3.05029Z" fill="#222222" stroke="#222222" stroke-width="0.1"/>
<path d="M5.3999 0.550293C5.59326 0.550293 5.75039 0.706693 5.75049 0.899902V1.80029C5.75038 1.99345 5.5933 2.1499 5.3999 2.1499C5.20659 2.1498 5.0504 1.99343 5.05029 1.80029V0.899902C5.05039 0.706797 5.20658 0.550392 5.3999 0.550293Z" fill="#222222" stroke="#222222" stroke-width="0.1"/>
<path d="M5.3999 7.4502C5.59326 7.4502 5.75039 7.60659 5.75049 7.7998V8.7002C5.75038 8.89335 5.5933 9.0498 5.3999 9.0498C5.20663 9.04971 5.0504 8.89333 5.05029 8.7002V7.7998C5.05039 7.60667 5.20657 7.45026 5.3999 7.4502Z" fill="#222222" stroke="#222222" stroke-width="0.1"/>
<path d="M9.30029 4.4502C9.4936 4.45031 9.6498 4.60671 9.6499 4.7998C9.6499 4.99299 9.49366 5.15028 9.30029 5.15039H8.3999C8.20656 5.15029 8.05029 4.99304 8.05029 4.7998C8.05039 4.6067 8.20662 4.45029 8.3999 4.4502H9.30029Z" fill="#222222" stroke="#222222" stroke-width="0.1"/>
<path d="M2.40039 4.4502C2.59366 4.45031 2.74988 4.60673 2.75 4.7998C2.75 4.99299 2.59376 5.15028 2.40039 5.15039H1.5C1.30661 5.15029 1.15039 4.99299 1.15039 4.7998C1.15049 4.6067 1.30668 4.45029 1.5 4.4502H2.40039Z" fill="#222222" stroke="#222222" stroke-width="0.1"/>
<path d="M7.90967 1.79492C8.0464 1.65823 8.26808 1.65822 8.40479 1.79492C8.54148 1.93165 8.54149 2.15333 8.40479 2.29004L7.76904 2.92578C7.70072 2.99415 7.61046 3.02832 7.521 3.02832C7.43156 3.02827 7.34223 2.99408 7.27393 2.92578C7.13723 2.78905 7.13722 2.56737 7.27393 2.43066L7.90967 1.79492Z" fill="#222222" stroke="#222222" stroke-width="0.1"/>
<path d="M3.03076 6.67432C3.16746 6.53757 3.38918 6.53757 3.52588 6.67432C3.66257 6.81105 3.66258 7.03273 3.52588 7.16943L2.89014 7.80518C2.82181 7.87354 2.73156 7.90771 2.64209 7.90771C2.55267 7.90767 2.46333 7.87348 2.39502 7.80518C2.25833 7.66844 2.25832 7.44676 2.39502 7.31006L3.03076 6.67432Z" fill="#222222" stroke="#222222" stroke-width="0.1"/>
<path d="M7.27393 6.67432C7.41066 6.53762 7.63234 6.53761 7.76904 6.67432L8.40479 7.31006C8.54147 7.44679 8.54147 7.66847 8.40479 7.80518C8.33651 7.87349 8.24711 7.90766 8.15771 7.90771C8.06824 7.90771 7.97802 7.87353 7.90967 7.80518L7.27393 7.16943C7.13723 7.0327 7.13722 6.81102 7.27393 6.67432Z" fill="#222222" stroke="#222222" stroke-width="0.1"/>
<path d="M2.39502 1.79492C2.53175 1.65823 2.75343 1.65822 2.89014 1.79492L3.52588 2.43066C3.66257 2.5674 3.66258 2.78908 3.52588 2.92578C3.4576 2.9941 3.36821 3.02827 3.27881 3.02832C3.18933 3.02832 3.09911 2.99413 3.03076 2.92578L2.39502 2.29004C2.25833 2.15331 2.25831 1.93163 2.39502 1.79492Z" fill="#222222" stroke="#222222" stroke-width="0.1"/>
</g>
<defs>
<clipPath id="clip0_102_4372">
<rect width="18" height="18" fill="white"/>
</clipPath>
</defs>
</svg>
