<svg width="18" height="18" viewBox="0 0 18 18" fill="none" xmlns="http://www.w3.org/2000/svg">
<g clip-path="url(#clip0_102_4351)">
<path d="M6.79639 11.0781C6.96958 11.0782 7.10983 11.2184 7.10986 11.3916C7.10986 11.5648 6.9696 11.705 6.79639 11.7051H5.13135C3.55553 11.7053 2.27317 12.9877 2.27295 14.5635C2.27295 16.1394 3.55543 17.4226 5.13135 17.4229H13.0259C13.6485 17.4228 14.24 17.2253 14.7368 16.8535C14.8755 16.75 15.0725 16.7784 15.1763 16.917C15.28 17.0557 15.2515 17.2526 15.1128 17.3564C14.5067 17.8101 13.7849 18.0498 13.0259 18.0498H5.13135C3.20932 18.0496 1.646 16.4856 1.646 14.5635C1.64622 12.6416 3.20946 11.0783 5.13135 11.0781H6.79639Z" fill="#222222" stroke="#222222" stroke-width="0.1"/>
<path d="M9 10.0981C9.58746 10.0983 10.0763 10.5207 10.1826 11.0776H13.0264C14.9485 11.0777 16.5118 12.6418 16.5117 14.564C16.5117 15.2065 16.3357 15.8347 16.002 16.3804C15.9428 16.4771 15.8389 16.5308 15.7334 16.5308C15.6778 16.5307 15.6212 16.5159 15.5703 16.4849C15.4225 16.3944 15.3764 16.201 15.4668 16.0532C15.7402 15.6062 15.8847 15.0911 15.8848 14.564C15.8848 12.9879 14.6024 11.7057 13.0264 11.7056H10.1357C9.96992 12.1732 9.52402 12.5091 9 12.5093C8.33517 12.5093 7.79415 11.969 7.79395 11.3042C7.79395 10.6392 8.33504 10.0981 9 10.0981ZM9 10.7251C8.68111 10.7251 8.4209 10.9853 8.4209 11.3042C8.42111 11.6229 8.68124 11.8823 9 11.8823C9.31858 11.8821 9.57792 11.6228 9.57812 11.3042C9.57812 10.9854 9.31871 10.7253 9 10.7251Z" fill="#222222" stroke="#222222" stroke-width="0.1"/>
<path d="M8.99951 3.47803C10.1843 3.47806 11.3492 3.7921 12.3677 4.38623C13.3547 4.96209 14.1836 5.78692 14.7651 6.771C14.8913 6.98452 14.9275 7.23489 14.8657 7.4751C14.8039 7.71527 14.6515 7.91729 14.438 8.04346C14.295 8.12793 14.1319 8.17231 13.9663 8.17236C13.639 8.17236 13.332 7.99789 13.1655 7.71631C12.2981 6.24842 10.7016 5.3365 8.99951 5.33643C7.29735 5.33643 5.70093 6.2484 4.8335 7.71631L4.83252 7.71533C4.58602 8.15079 3.9883 8.30573 3.56104 8.04248V8.04346C3.34757 7.91734 3.19516 7.71521 3.1333 7.4751C3.07158 7.23501 3.10693 6.98446 3.23291 6.771C3.81449 5.78684 4.64422 4.9621 5.63135 4.38623C6.64988 3.79211 7.81466 3.47803 8.99951 3.47803ZM8.99951 4.10498C7.92557 4.10498 6.8703 4.39004 5.94775 4.92822C5.05286 5.45032 4.30118 6.19811 3.77393 7.09033C3.73303 7.15971 3.72165 7.2408 3.7417 7.31885C3.76186 7.39676 3.81108 7.46247 3.88037 7.50342H3.88135C4.01784 7.5877 4.21361 7.53761 4.29248 7.39795L4.29346 7.39697C5.27328 5.73882 7.07626 4.7085 8.99951 4.7085C10.9227 4.70852 12.7257 5.73884 13.7056 7.39697C13.7605 7.48991 13.858 7.54541 13.9663 7.54541H13.9673C14.0771 7.54879 14.1722 7.48391 14.2251 7.39111C14.278 7.29835 14.2852 7.1841 14.2261 7.09131L14.2251 7.09033C13.6979 6.1981 12.9461 5.45028 12.0513 4.92822C11.1287 4.39005 10.0734 4.10499 8.99951 4.10498Z" fill="#222222" stroke="#222222" stroke-width="0.1"/>
<path d="M8.99902 -0.0498047C12.4668 -0.0498047 15.6698 1.68683 17.5664 4.5957C17.7019 4.80351 17.7484 5.05213 17.6973 5.29492C17.6461 5.53766 17.5037 5.74637 17.2959 5.88184L17.2949 5.88086C16.9054 6.14483 16.3501 6.04917 16.0635 5.68652L16.0098 5.61035C14.4573 3.22954 11.8363 1.80859 8.99902 1.80859C6.16172 1.80872 3.54069 3.22941 1.98828 5.61035C1.8162 5.87433 1.52538 6.03216 1.20996 6.03223C1.02985 6.03223 0.854422 5.98042 0.703125 5.88184V5.88086C0.278683 5.61559 0.150525 5.00835 0.432617 4.59473C1.3624 3.16902 2.63911 1.98947 4.12402 1.18359C4.27618 1.10123 4.46613 1.15762 4.54883 1.30957C4.63146 1.46187 4.57513 1.65271 4.42285 1.73535C3.0292 2.49171 1.83111 3.59939 0.958008 4.93848C0.913924 5.00608 0.898432 5.08709 0.915039 5.16602C0.931753 5.24476 0.978454 5.31248 1.0459 5.35645H1.04688C1.18028 5.44678 1.37771 5.40484 1.46289 5.26855L1.62305 5.03125C3.30811 2.615 6.04418 1.18079 8.99902 1.18066C11.9541 1.18066 14.6908 2.61489 16.376 5.03125L16.5361 5.26758L16.5371 5.26953C16.6025 5.37809 16.7263 5.41848 16.8438 5.39648C16.9611 5.37436 17.0613 5.29182 17.083 5.16699L17.084 5.16504C17.1004 5.08626 17.085 5.00591 17.041 4.93848C15.2605 2.20768 12.254 0.577148 8.99902 0.577148C7.78028 0.577196 6.59135 0.803095 5.46582 1.24805C5.30477 1.31159 5.12321 1.2323 5.05957 1.07129C4.996 0.910286 5.07448 0.728817 5.23535 0.665039C6.43468 0.190925 7.70112 -0.0497576 8.99902 -0.0498047Z" fill="#222222" stroke="#222222" stroke-width="0.1"/>
<path d="M8.99902 7.14697C10.1741 7.14697 11.2536 7.73943 11.8857 8.73193C12.1609 9.16403 12.0336 9.73989 11.6016 10.0151C11.4521 10.1103 11.2792 10.1606 11.1025 10.1606C10.7833 10.1606 10.4898 9.99997 10.3184 9.73096C10.029 9.27654 9.53579 9.00537 8.99902 9.00537C8.46238 9.00548 7.969 9.27666 7.67969 9.73096C7.54645 9.93992 7.33964 10.0845 7.09766 10.1382C6.85767 10.1917 6.60708 10.1489 6.39746 10.0151C5.9653 9.73994 5.83707 9.1641 6.1123 8.73193C6.74439 7.73935 7.82397 7.14708 8.99902 7.14697ZM8.99902 7.77393C8.03943 7.77404 7.15804 8.25887 6.6416 9.06982C6.55271 9.21001 6.59434 9.39665 6.73438 9.48584C6.8025 9.52919 6.88323 9.54341 6.96191 9.52588C7.04062 9.50842 7.10809 9.46106 7.15137 9.39307C7.55636 8.75744 8.24708 8.37757 8.99902 8.37744C9.75118 8.37744 10.4426 8.75727 10.8477 9.39307L10.8486 9.39404C10.9324 9.53143 11.1291 9.57582 11.2637 9.48682L11.2646 9.48584C11.4046 9.39653 11.4456 9.21001 11.3564 9.06982C10.8399 8.25877 9.95875 7.77393 8.99902 7.77393Z" fill="#222222" stroke="#222222" stroke-width="0.1"/>
<path d="M5.65137 13.1665C5.82456 13.1666 5.96481 13.3068 5.96484 13.48C5.96484 13.6532 5.82458 13.7934 5.65137 13.7935H5.02051V14.3091H5.57617C5.74937 14.3091 5.88953 14.4494 5.88965 14.6226C5.88965 14.7958 5.74944 14.936 5.57617 14.936H5.02051V15.8101C5.02027 15.9831 4.88015 16.1235 4.70703 16.1235C4.53395 16.1235 4.3938 15.9831 4.39355 15.8101V13.48C4.39359 13.3068 4.53382 13.1665 4.70703 13.1665H5.65137Z" fill="#222222" stroke="#222222" stroke-width="0.1"/>
<path d="M10.9307 13.1465C11.1039 13.1465 11.2451 13.2867 11.2451 13.46C11.2451 13.6332 11.1039 13.7734 10.9307 13.7734H10.2646V14.3086H10.8584C11.0317 14.3086 11.1729 14.4498 11.1729 14.623C11.1727 14.7961 11.0315 14.9365 10.8584 14.9365H10.2646V15.4717H10.9307C11.1039 15.4717 11.245 15.612 11.2451 15.7852C11.2451 15.9584 11.1039 16.0986 10.9307 16.0986H9.95117C9.77794 16.0986 9.6377 15.9584 9.6377 15.7852V13.46C9.63773 13.2867 9.77796 13.1465 9.95117 13.1465H10.9307Z" fill="#222222" stroke="#222222" stroke-width="0.1"/>
<path d="M13.4839 13.1465C13.6571 13.1465 13.7983 13.2867 13.7983 13.46C13.7983 13.6332 13.6572 13.7734 13.4839 13.7734H12.8179V14.3086H13.4116C13.5849 14.3086 13.7261 14.4498 13.7261 14.623C13.7259 14.7961 13.5848 14.9365 13.4116 14.9365H12.8179V15.4717H13.4839C13.6571 15.4717 13.7982 15.612 13.7983 15.7852C13.7983 15.9584 13.6572 16.0986 13.4839 16.0986H12.5044C12.3312 16.0986 12.1909 15.9584 12.1909 15.7852V13.46C12.191 13.2867 12.3312 13.1465 12.5044 13.1465H13.4839Z" fill="#222222" stroke="#222222" stroke-width="0.1"/>
<path d="M7.76025 13.1567C8.28679 13.1567 8.71924 13.5694 8.71924 14.0806C8.71906 14.489 8.44136 14.8306 8.06201 14.9526L8.64014 15.6099C8.75447 15.7398 8.74248 15.9377 8.61279 16.0522C8.55321 16.1047 8.47835 16.1304 8.40479 16.1304C8.31799 16.1303 8.23136 16.0943 8.16943 16.0239L7.44971 15.2056V15.8169C7.44971 15.9902 7.3095 16.1304 7.13623 16.1304C6.963 16.1303 6.82275 15.9901 6.82275 15.8169V13.4702C6.82279 13.297 6.96302 13.1568 7.13623 13.1567H7.76025ZM7.45264 14.3765C7.56775 14.3759 7.68766 14.3765 7.76025 14.3765C7.9434 14.3765 8.09106 14.2361 8.09131 14.0806C8.09131 13.9249 7.94355 13.7837 7.76025 13.7837H7.45166C7.45207 13.9322 7.45207 14.2299 7.45264 14.3765Z" fill="#222222" stroke="#222222" stroke-width="0.1"/>
</g>
<defs>
<clipPath id="clip0_102_4351">
<rect width="18" height="18" fill="white"/>
</clipPath>
</defs>
</svg>
